<svg width="480" height="432" viewBox="0 0 480 432" fill="none" xmlns="http://www.w3.org/2000/svg">
<path d="M8 384C3.58203 384 0 387.582 0 392V424C0 428.418 3.58203 432 8 432H472C476.418 432 480 428.418 480 424V392C480 387.582 476.418 384 472 384H400V368H424C433.484 368.043 442.098 362.469 445.945 353.801C449.793 345.133 448.152 335.008 441.762 328C448.152 320.992 449.793 310.867 445.945 302.199C442.098 293.531 433.484 287.957 424 288H400V272H424C433.484 272.043 442.098 266.469 445.945 257.801C449.793 249.133 448.152 239.008 441.762 232C448.152 224.992 449.793 214.867 445.945 206.199C442.098 197.531 433.484 191.957 424 192H400V176H472C476.418 176 480 172.418 480 168V136C480 131.582 476.418 128 472 128H400V112H424C437.254 112 448 101.254 448 88C448 74.7461 437.254 64 424 64H400V48H472C476.418 48 480 44.418 480 40V8C480 3.58203 476.418 0 472 0H8C3.58203 0 0 3.58203 0 8V40C0 44.418 3.58203 48 8 48H80V64H56C42.7461 64 32 74.7461 32 88C32 101.254 42.7461 112 56 112H80V128H8C3.58203 128 0 131.582 0 136V168C0 172.418 3.58203 176 8 176H80V192H56C46.5156 191.957 37.9023 197.531 34.0547 206.199C30.207 214.867 31.8477 224.992 38.2383 232C29.918 241.043 29.918 254.957 38.2383 264C31.8477 271.008 30.207 281.133 34.0547 289.801C37.9023 298.469 46.5156 304.043 56 304H80V320H56C42.7461 320 32 330.746 32 344C32 357.254 42.7461 368 56 368H80V384H8ZM464 416H16V400H464V416ZM424 352H360C355.582 352 352 348.418 352 344C352 339.582 355.582 336 360 336H424C428.418 336 432 339.582 432 344C432 348.418 428.418 352 424 352ZM432 312C432 316.418 428.418 320 424 320H360C355.582 320 352 316.418 352 312C352 307.582 355.582 304 360 304H424C428.418 304 432 307.582 432 312ZM424 256H360C355.582 256 352 252.418 352 248C352 243.582 355.582 240 360 240H424C428.418 240 432 243.582 432 248C432 252.418 428.418 256 424 256ZM432 216C432 220.418 428.418 224 424 224H360C355.582 224 352 220.418 352 216C352 211.582 355.582 208 360 208H424C428.418 208 432 211.582 432 216ZM384 192H360C350.516 191.957 341.902 197.531 338.055 206.199C334.207 214.867 335.848 224.992 342.238 232C335.848 239.008 334.207 249.133 338.055 257.801C341.902 266.469 350.516 272.043 360 272H384V288H360C350.516 287.957 341.902 293.531 338.055 302.199C334.207 310.867 335.848 320.992 342.238 328C335.848 335.008 334.207 345.133 338.055 353.801C341.902 362.469 350.516 368.043 360 368H384V384H248V368H272C281.484 368.043 290.098 362.469 293.945 353.801C297.793 345.133 296.152 335.008 289.762 328C298.082 318.957 298.082 305.043 289.762 296C296.152 288.992 297.793 278.867 293.945 270.199C290.098 261.531 281.484 255.957 272 256H248V240H272C285.254 240 296 229.254 296 216C296 202.746 285.254 192 272 192H248V176H384V192ZM200 280C200 275.582 203.582 272 208 272H272C276.418 272 280 275.582 280 280C280 284.418 276.418 288 272 288H208C203.582 288 200 284.418 200 280ZM200 312C200 307.582 203.582 304 208 304H272C276.418 304 280 307.582 280 312C280 316.418 276.418 320 272 320H208C203.582 320 200 316.418 200 312ZM208 336H272C276.418 336 280 339.582 280 344C280 348.418 276.418 352 272 352H208C203.582 352 200 348.418 200 344C200 339.582 203.582 336 208 336ZM272 208C276.418 208 280 211.582 280 216C280 220.418 276.418 224 272 224H208C203.582 224 200 220.418 200 216C200 211.582 203.582 208 208 208H272ZM432 88C432 92.418 428.418 96 424 96H360C355.582 96 352 92.418 352 88C352 83.582 355.582 80 360 80H424C428.418 80 432 83.582 432 88ZM384 64H360C346.746 64 336 74.7461 336 88C336 101.254 346.746 112 360 112H384V128H248V112H272C285.254 112 296 101.254 296 88C296 74.7461 285.254 64 272 64H248V48H384V64ZM272 80C276.418 80 280 83.582 280 88C280 92.418 276.418 96 272 96H208C203.582 96 200 92.418 200 88C200 83.582 203.582 80 208 80H272ZM16 16H464V32H16V16ZM48 88C48 83.582 51.582 80 56 80H120C124.418 80 128 83.582 128 88C128 92.418 124.418 96 120 96H56C51.582 96 48 92.418 48 88ZM96 112H120C133.254 112 144 101.254 144 88C144 74.7461 133.254 64 120 64H96V48H232V64H208C194.746 64 184 74.7461 184 88C184 101.254 194.746 112 208 112H232V128H96V112ZM16 144H464V160H16V144ZM56 208H120C124.418 208 128 211.582 128 216C128 220.418 124.418 224 120 224H56C51.582 224 48 220.418 48 216C48 211.582 51.582 208 56 208ZM48 248C48 243.582 51.582 240 56 240H120C124.418 240 128 243.582 128 248C128 252.418 124.418 256 120 256H56C51.582 256 48 252.418 48 248ZM48 280C48 275.582 51.582 272 56 272H120C124.418 272 128 275.582 128 280C128 284.418 124.418 288 120 288H56C51.582 288 48 284.418 48 280ZM48 344C48 339.582 51.582 336 56 336H120C124.418 336 128 339.582 128 344C128 348.418 124.418 352 120 352H56C51.582 352 48 348.418 48 344ZM96 368H120C133.254 368 144 357.254 144 344C144 330.746 133.254 320 120 320H96V304H120C129.484 304.043 138.098 298.469 141.945 289.801C145.793 281.133 144.152 271.008 137.762 264C146.082 254.957 146.082 241.043 137.762 232C144.152 224.992 145.793 214.867 141.945 206.199C138.098 197.531 129.484 191.957 120 192H96V176H232V192H208C194.746 192 184 202.746 184 216C184 229.254 194.746 240 208 240H232V256H208C198.516 255.957 189.902 261.531 186.055 270.199C182.207 278.867 183.848 288.992 190.238 296C181.918 305.043 181.918 318.957 190.238 328C183.848 335.008 182.207 345.133 186.055 353.801C189.902 362.469 198.516 368.043 208 368H232V384H96V368Z" fill="#ffffff"/>
</svg>
