<svg width="200" height="180" viewBox="0 0 200 180" fill="none" xmlns="http://www.w3.org/2000/svg"><path d="M128.125 118.614V114.238L126.206 113.375C111.969 106.971 103.125 94.0922 103.125 79.7653C103.125 59.0456 121.856 42.1875 144.878 42.1875H164.063C173.541 42.1875 181.25 49.1259 181.25 57.6562C181.25 65.3119 175.031 71.6681 166.906 72.8944C166.919 72.9225 166.938 72.9478 166.947 72.9759L174.359 90.7678C174.784 91.7859 175 92.8575 175 93.9431C175 97.8441 172.238 101.295 168.125 102.527L165.625 103.278V106.265C165.625 111.254 161.116 115.312 155.569 115.312H153.125V118.614C175.309 122.979 192.375 139.767 195.047 160.214L197.266 177.188H83.9875L86.2063 160.214C88.875 139.767 105.941 122.979 128.125 118.614ZM140.625 170.398L146.491 165.119L141.394 149.062H139.859L134.763 165.119L140.625 170.398ZM151.306 124.057L144.75 131.926L150.738 137.315L152.35 124.256C152.006 124.18 151.656 124.121 151.306 124.057ZM139.616 143.438H141.634L143.656 138.892L140.625 136.164L137.594 138.892L139.616 143.438ZM136.5 131.923L129.944 124.054C129.597 124.118 129.247 124.178 128.9 124.251L130.513 137.309L136.5 131.923ZM175 57.6562C175 52.2281 170.094 47.8125 164.063 47.8125H144.878C125.303 47.8125 109.375 62.1478 109.375 79.7653C109.375 91.6369 116.553 102.302 128.125 107.879V99.6019L124.622 96.4491C122.85 94.8572 121.875 92.7366 121.875 90.4809V90C121.875 86.3325 124.488 83.205 128.125 82.0434V78.75C128.125 72.5456 133.731 67.5 140.625 67.5H158.169C158.578 67.5 158.978 67.5366 159.375 67.5844V67.5H164.063C170.094 67.5 175 63.0844 175 57.6562ZM155.569 109.688C157.669 109.688 159.375 108.152 159.375 106.265V99.225L166.147 97.1916C167.706 96.7247 168.75 95.4197 168.75 93.9431C168.75 93.5325 168.669 93.1247 168.506 92.7394L161.094 74.9503C160.641 73.8591 159.463 73.125 158.169 73.125H140.625C137.178 73.125 134.375 75.6478 134.375 78.75V87.1875H131.25C129.528 87.1875 128.125 88.4503 128.125 90V90.4809C128.125 91.2319 128.45 91.9406 129.041 92.4722L134.375 97.2731V120.001L140.625 127.502L146.875 120.001V115.312H140.625V109.688H155.569ZM188.838 160.872C186.75 144.908 174.719 131.498 158.431 125.924L155.513 149.563L148.463 143.218L147.047 146.402L153.509 166.756L148.169 171.562H171.509L168.769 149.372L174.981 148.753L177.797 171.562H190.234L188.838 160.872ZM103.453 171.562L106.269 148.753L112.478 149.375L109.741 171.562H133.081L127.741 166.756L134.203 146.402L132.788 143.218L125.738 149.563L122.819 125.924C106.528 131.498 94.4969 144.908 92.4125 160.872L91.0156 171.562H103.453Z" fill="#ffffff"/><path d="M12.5188 93.6169C18.4844 88.8188 26.5 86.5351 34.5157 87.3535C47.175 88.6416 57.5313 97.8244 59.1407 109.187C60.5375 119.056 55.6469 128.498 46.3782 133.827C44.7563 134.758 43.7532 136.555 43.7532 138.516V146.25C43.7532 150.902 39.5469 154.688 34.3782 154.688H28.1282C22.9594 154.688 18.7532 150.902 18.7532 146.25V138.398C18.7532 136.516 17.7219 134.75 16.0625 133.788C7.95941 129.105 3.12504 121.146 3.12504 112.5C3.12504 105.3 6.55004 98.4179 12.5188 93.6169ZM28.125 149.063H34.375C36.0969 149.063 37.5 147.8 37.5 146.25V143.438H25V146.25C25 147.8 26.4032 149.063 28.125 149.063ZM34.375 112.5C34.375 110.95 32.9719 109.688 31.25 109.688C29.5282 109.688 28.125 110.95 28.125 112.5C28.125 114.05 29.5282 115.313 31.25 115.313C32.9719 115.313 34.375 114.05 34.375 112.5ZM19.4375 129.057C22.7407 130.97 24.7563 134.213 24.9594 137.813H28.125V120.42C24.4969 119.256 21.875 116.162 21.875 112.5C21.875 107.848 26.0813 104.063 31.25 104.063C36.4188 104.063 40.625 107.848 40.625 112.5C40.625 116.162 38.0032 119.256 34.375 120.42V137.813H37.5469C37.7782 134.179 39.7688 130.95 43.0094 129.085C50.225 124.937 54.0282 117.585 52.9375 109.899C51.6907 101.076 43.6438 93.9432 33.8125 92.9419C32.9438 92.8548 32.0813 92.8126 31.2219 92.8126C25.8313 92.8126 20.7438 94.5479 16.6844 97.8132C12.0407 101.545 9.37504 106.9 9.37504 112.5C9.37504 119.222 13.1375 125.412 19.4375 129.057Z" fill="#ffffff"/><path d="M153.125 16.0538C153.125 11.8547 149.328 8.4375 144.662 8.4375H142.838C138.172 8.4375 134.375 11.8547 134.375 16.0538C134.375 18.9591 136.169 21.5691 139.053 22.8656L146.875 26.3869V36.5625H140.625V29.8631L136.259 27.8972C131.241 25.6416 128.125 21.1022 128.125 16.0538C128.125 8.7525 134.725 2.8125 142.838 2.8125H144.662C152.775 2.8125 159.375 8.7525 159.375 16.0538V19.6875H153.125V16.0538Z" fill="#ffffff"/><path d="M7.25312 19.1784L5.39376 15.5981L17.3313 4.85437L21.3094 6.52781L22.8094 2.8125H39.6875L41.1875 6.52781L45.1656 4.85437L57.1031 15.5981L55.2438 19.1784L59.375 20.5284V35.7187L55.2469 37.0688L57.1062 40.6491L45.1687 51.3928L41.1906 49.7194L39.6906 53.4375H22.8125L21.3125 49.7222L17.3344 51.3956L5.39688 40.6519L7.25625 37.0716L3.125 35.7216V20.5284L7.25312 19.1784ZM9.375 31.7784L11.9469 32.6194L13.3469 33.2213L14.6656 36.0872L12.9125 39.465L18.6531 44.6316L22.4062 43.0537L25.7781 44.3109L27.1906 47.8125H35.3125L36.2469 45.4978L36.9156 44.2378L40.1 43.0509L43.8531 44.6288L49.5937 39.4622L47.8406 36.0844L49.2375 33.0497L53.125 31.7784V24.4716L50.5531 23.6306L49.1531 23.0287L47.8344 20.1628L49.5875 16.785L43.8469 11.6184L40.0906 13.1991L36.725 11.9419L35.3094 8.4375H27.1875L26.2531 10.7522L25.5937 12.0094L22.4094 13.1991L18.6531 11.6184L12.9125 16.785L14.6656 20.1628L13.2687 23.1975L9.375 24.4716V31.7784Z" fill="#ffffff"/><path d="M31.25 14.0625C39.8656 14.0625 46.875 20.3709 46.875 28.125C46.875 35.8791 39.8656 42.1875 31.25 42.1875C22.6344 42.1875 15.625 35.8791 15.625 28.125C15.625 20.3709 22.6344 14.0625 31.25 14.0625ZM31.25 36.5625C36.4188 36.5625 40.625 32.7769 40.625 28.125C40.625 23.4731 36.4188 19.6875 31.25 19.6875C26.0812 19.6875 21.875 23.4731 21.875 28.125C21.875 32.7769 26.0812 36.5625 31.25 36.5625Z" fill="#ffffff"/><path d="M34.375 59.0625V73.4962L38.8906 70.785L42.3594 75.465L31.25 82.1306L20.1406 75.465L23.6094 70.785L28.125 73.4962V59.0625H34.375Z" fill="#ffffff"/><path d="M77.6 21.2483L74.5875 25.3124H118.75V30.9374H74.5875L77.6 35.0015L72.4 38.1233L64.9938 28.1249L72.4 18.1265L77.6 21.2483Z" fill="#ffffff"/><path d="M97.4 105.623L102.6 102.501L110.006 112.5L102.6 122.498L97.4 119.376L100.412 115.312H65.625V109.687H100.412L97.4 105.623Z" fill="#ffffff"/></svg>