<svg width="201" height="200" viewBox="0 0 201 200" fill="none" xmlns="http://www.w3.org/2000/svg"><path d="M4.33327 71.4286C4.35349 60.7764 11.6736 51.7573 21.5166 50.2571C24.7889 27.599 42.9343 10.8411 64.3333 10.7143C65.1833 10.7143 66.0766 10.8214 66.9466 10.875C70.0878 4.9035 75.7125 0.909505 82.0693 0.13663C88.4262 -0.636244 94.7431 1.90587 99.0533 6.97143C104.969 2.43778 112.06 0.000163643 119.333 0C130.637 0.0605067 141.228 5.92923 147.807 15.7786C155.36 12.9541 163.72 14.1822 170.286 19.0809C176.851 23.9795 180.826 31.9544 180.973 40.525C190.79 44.0602 196.349 55.1646 193.667 65.8821C198.454 73.2795 201.013 82.0698 201 91.0714C201.012 105.066 194.894 118.255 184.474 126.693C174.055 135.132 160.542 137.841 147.98 134.011C143.625 144.047 134.963 151.166 124.787 153.072C114.611 154.978 104.208 151.43 96.9333 143.571C92.8342 145.064 88.5699 145.973 84.2499 146.275C83.6333 159.632 78.8399 167.639 58.7199 174.825C45.6566 179.489 42.1699 188.961 41.2566 194.193C40.6361 197.58 37.8578 200.017 34.6366 200H24.4666C22.6288 200.003 20.8712 199.194 19.6091 197.762C18.347 196.331 17.6924 194.405 17.7999 192.439C18.2966 183.868 20.5133 164.021 30.1699 151.421C19.0558 144.914 11.1714 133.503 8.60661 120.214C-0.477152 108.883 -1.53715 92.5053 5.99994 79.9393C4.91002 77.2533 4.34291 74.3574 4.33327 71.4286ZM14.0866 116.114L14.1633 116.2C18.9063 121.784 25.6199 124.977 32.6666 125C36.6112 125.015 40.5003 124.004 43.9999 122.054C45.5881 121.175 47.0786 120.108 48.4433 118.871C43.9896 113.423 43.0567 105.629 46.0833 99.1536C46.6192 98.0129 47.6823 97.2651 48.8723 97.192C50.0623 97.119 51.1982 97.7316 51.8523 98.7992C52.5064 99.8668 52.5792 101.227 52.0433 102.368C51.3508 103.85 50.9934 105.486 50.9999 107.143C50.9956 112.116 54.1862 116.439 58.7041 117.581C63.222 118.723 67.8793 116.383 69.9499 111.932C70.4858 110.791 71.549 110.044 72.739 109.971C73.929 109.898 75.0649 110.51 75.719 111.578C76.373 112.645 76.4458 114.006 75.9099 115.146C71.8944 123.823 62.1309 127.452 53.9633 123.304C51.8875 125.352 49.555 127.079 47.0333 128.436C37.9953 133.427 27.2564 133.396 18.2433 128.354C23.4614 139.579 33.4015 147.428 44.9533 149.446C46.6748 149.735 47.8987 151.395 47.7615 153.256C47.6243 155.117 46.1724 156.551 44.4299 156.546C44.2513 156.547 44.0729 156.531 43.8966 156.5C41.3941 156.061 38.9332 155.383 36.5433 154.475C27.0766 165.136 24.9366 184.696 24.4666 192.871H34.7033C35.6566 187.418 39.7033 174.082 56.6133 168.043C73.8033 161.904 77.1033 156.329 77.5866 146.289H77.4066C73.6361 146.011 69.9076 145.273 66.2933 144.089C64.5333 143.51 63.5446 141.512 64.0849 139.627C64.6253 137.741 66.49 136.682 68.2499 137.261C71.401 138.292 74.6524 138.932 77.9399 139.168C84.3132 139.7 90.7159 138.667 96.6599 136.146C97.9762 135.618 99.4605 136.012 100.393 137.139C106.229 144.401 115.244 147.766 124.028 145.961C132.813 144.156 140.026 137.457 142.94 128.396V128.375C145.373 120.902 144.576 112.656 140.767 105.875C139.818 104.185 140.327 101.99 141.905 100.973C143.483 99.9564 145.531 100.502 146.48 102.193C147.957 104.83 149.091 107.67 149.85 110.636C152.692 111.04 155.558 110.098 157.7 108.056C159.841 106.013 161.046 103.072 161 100V99.8571C161.002 98.9173 161.357 98.0178 161.983 97.3599C162.61 96.7021 163.456 96.3409 164.333 96.3571C166.186 96.3922 167.671 98.0141 167.667 100C167.656 109.857 160.2 117.845 151 117.857H150.887C150.917 118.457 151 119.05 151 119.643C150.993 122.21 150.712 124.769 150.163 127.268C160.684 130.319 171.931 127.948 180.589 120.853C189.246 113.759 194.327 102.749 194.333 91.0714C194.343 84.9683 192.946 78.957 190.267 73.5714C188.735 75.7875 186.818 77.6648 184.62 79.1C183.599 79.7565 182.328 79.7794 181.287 79.1601C180.246 78.5408 179.592 77.3733 179.572 76.0976C179.552 74.8218 180.169 73.6315 181.19 72.975C186.339 69.6761 188.797 63.099 187.197 56.9041C185.597 50.7091 180.333 46.422 174.333 46.4286C170.127 46.4119 166.165 48.545 163.667 52.1714C162.562 53.7494 160.473 54.0692 159 52.8857C157.527 51.7022 157.229 49.4637 158.333 47.8857C162.066 42.4771 167.972 39.2861 174.25 39.2857C173.379 29.1791 165.473 21.4428 156 21.4286C154.389 21.439 152.786 21.6792 151.233 22.1429C152.037 24.0209 152.695 25.9668 153.2 27.9607C153.424 28.8776 153.299 29.8524 152.852 30.6703C152.405 31.4882 151.673 32.0822 150.817 32.3214C149.961 32.5616 149.051 32.4274 148.288 31.9484C147.524 31.4695 146.97 30.685 146.747 29.7679C146.088 27.0477 145.078 24.4392 143.747 22.0179C138.601 12.8215 129.341 7.1791 119.333 7.14286C113.352 7.13909 107.524 9.17135 102.69 12.9464C103.775 15.6231 104.334 18.5103 104.333 21.4286C104.333 23.401 102.841 25 101 25C99.159 25 97.6666 23.401 97.6666 21.4286C97.6666 13.5388 91.6971 7.14286 84.3333 7.14286C76.9695 7.14286 70.9999 13.5388 70.9999 21.4286C70.9999 23.401 69.5076 25 67.6666 25C65.8257 25 64.3333 23.401 64.3333 21.4286C64.339 20.2312 64.4393 19.0364 64.6333 17.8571H64.3333C46.5311 17.9573 31.3352 31.665 28.2099 50.4429C31.1541 51.049 33.9316 52.363 36.3333 54.2857C37.806 55.4692 38.1045 57.7078 36.9999 59.2857C35.8954 60.8637 33.806 61.1835 32.3333 60C27.2847 55.9376 20.2688 56.2262 15.5258 60.6913C10.7827 65.1564 9.61285 72.5737 12.7233 78.4607C14.1078 81.0447 16.2033 83.1077 18.7233 84.3679C20.3912 85.2042 21.1105 87.3308 20.3299 89.1179C19.5494 90.9049 17.5645 91.6756 15.8966 90.8393C13.787 89.7607 11.8694 88.2958 10.2299 86.5107C5.74646 96.2976 7.28222 108.024 14.1066 116.111L14.0866 116.114Z" fill="#ffffff"/><path d="M71 67.857H78.4866L84.4633 45.4463C84.8621 43.8713 86.2212 42.7984 87.7433 42.857C89.2622 42.8936 90.5658 44.026 90.9133 45.6106L100.737 90.357L111.067 34.9999C111.382 33.3354 112.748 32.1392 114.333 32.1392C115.919 32.1392 117.284 33.3354 117.6 34.9999L123.733 67.857H144.333C146.174 67.857 147.667 69.456 147.667 71.4285C147.667 73.4009 146.174 74.9999 144.333 74.9999H121C119.416 75.0002 118.05 73.8058 117.733 72.1427L114.333 53.9285L104.267 107.857C103.954 109.498 102.62 110.686 101.057 110.714H101C99.4524 110.715 98.1077 109.575 97.7533 107.961L87.3533 60.5999L84.2033 72.4106C83.7943 73.9428 82.4873 74.9992 81 74.9999H71C69.159 74.9999 67.6666 73.4009 67.6666 71.4285C67.6666 69.456 69.159 67.857 71 67.857Z" fill="#ffffff"/><path d="M51 67.8572H57.6667C59.5076 67.8572 61 69.4562 61 71.4286C61 73.4011 59.5076 75 57.6667 75H51C49.1591 75 47.6667 73.4011 47.6667 71.4286C47.6667 69.4562 49.1591 67.8572 51 67.8572Z" fill="#ffffff"/></svg>