<svg width="47" height="46" viewBox="0 0 47 46" fill="none" xmlns="http://www.w3.org/2000/svg"><path d="M30.55 15.9101C29.6332 14.984 28.5412 14.2497 27.3376 13.7501C26.1341 13.2505 24.8431 12.9955 23.54 13.0001C18.08 13.0001 13.63 17.4501 13.63 22.9101C13.63 24.6601 14.09 26.3601 14.95 27.8601L13.55 33.0001L18.8 31.6201C20.25 32.4101 21.88 32.8301 23.54 32.8301C29 32.8301 33.45 28.3801 33.45 22.9201C33.45 20.2701 32.42 17.7801 30.55 15.9101ZM23.54 31.1501C22.06 31.1501 20.61 30.7501 19.34 30.0001L19.04 29.8201L15.92 30.6401L16.75 27.6001L16.55 27.2901C15.7277 25.977 15.2911 24.4593 15.29 22.9101C15.29 18.3701 18.99 14.6701 23.53 14.6701C25.73 14.6701 27.8 15.5301 29.35 17.0901C30.1175 17.854 30.7257 18.7627 31.1394 19.7635C31.5531 20.7642 31.764 21.8372 31.76 22.9201C31.78 27.4601 28.08 31.1501 23.54 31.1501ZM28.06 24.9901C27.81 24.8701 26.59 24.2701 26.37 24.1801C26.14 24.1001 25.98 24.0601 25.81 24.3001C25.64 24.5501 25.17 25.1101 25.03 25.2701C24.89 25.4401 24.74 25.4601 24.49 25.3301C24.24 25.2101 23.44 24.9401 22.5 24.1001C21.76 23.4401 21.27 22.6301 21.12 22.3801C20.98 22.1301 21.1 22.0001 21.23 21.8701C21.34 21.7601 21.48 21.5801 21.6 21.4401C21.72 21.3001 21.77 21.1901 21.85 21.0301C21.93 20.8601 21.89 20.7201 21.83 20.6001C21.77 20.4801 21.27 19.2601 21.07 18.7601C20.87 18.2801 20.66 18.3401 20.51 18.3301H20.03C19.86 18.3301 19.6 18.3901 19.37 18.6401C19.15 18.8901 18.51 19.4901 18.51 20.7101C18.51 21.9301 19.4 23.1101 19.52 23.2701C19.64 23.4401 21.27 25.9401 23.75 27.0101C24.34 27.2701 24.8 27.4201 25.16 27.5301C25.75 27.7201 26.29 27.6901 26.72 27.6301C27.2 27.5601 28.19 27.0301 28.39 26.4501C28.6 25.8701 28.6 25.3801 28.53 25.2701C28.46 25.1601 28.31 25.1101 28.06 24.9901Z" fill="url(#paint0_angular_262_72)"/><path d="M0.5 23C0.5 10.2975 10.7975 0 23.5 0C36.2025 0 46.5 10.2975 46.5 23C46.5 35.7025 36.2025 46 23.5 46C10.7975 46 0.5 35.7025 0.5 23Z" fill="#869BDF" fill-opacity="0.14"/><path d="M1 23C1 10.5736 11.0736 0.5 23.5 0.5C35.9264 0.5 46 10.5736 46 23C46 35.4264 35.9264 45.5 23.5 45.5C11.0736 45.5 1 35.4264 1 23Z" stroke="#535488" stroke-opacity="0.4"/><defs><radialGradient id="paint0_angular_262_72" cx="0" cy="0" r="1" gradientUnits="userSpaceOnUse" gradientTransform="translate(22.2926 13) rotate(-92.5064) scale(12.55 12.9729)"><stop offset="0.00520833" stop-color="#FBE308"/><stop offset="0.317708" stop-color="#0AD3FF"/><stop offset="0.552083" stop-color="#31DC61" stop-opacity="0.92"/><stop offset="0.796875" stop-color="#0085FF"/></radialGradient></defs></svg>