<svg width="47" height="46" viewBox="0 0 47 46" fill="none" xmlns="http://www.w3.org/2000/svg"><path d="M33.003 29.3808H30.722C29.859 29.3808 29.599 28.6818 28.052 27.1338C26.7 25.8308 26.129 25.6688 25.787 25.6688C25.314 25.6688 25.185 25.7988 25.185 26.4498V28.5018C25.185 29.0568 25.005 29.3818 23.555 29.3818C22.1483 29.2873 20.7842 28.86 19.575 28.135C18.3658 27.41 17.3461 26.4081 16.6 25.2118C14.8284 23.0069 13.5957 20.4189 13 17.6538C13 17.3118 13.13 17.0018 13.782 17.0018H16.062C16.648 17.0018 16.859 17.2628 17.089 17.8658C18.196 21.1238 20.085 23.9578 20.852 23.9578C21.146 23.9578 21.274 23.8278 21.274 23.0948V19.7388C21.177 18.2078 20.364 18.0788 20.364 17.5248C20.3743 17.3787 20.4411 17.2423 20.5504 17.1446C20.6596 17.047 20.8026 16.9958 20.949 17.0018H24.533C25.023 17.0018 25.185 17.2458 25.185 17.8318V22.3618C25.185 22.8508 25.395 23.0128 25.543 23.0128C25.837 23.0128 26.063 22.8508 26.602 22.3128C27.7574 20.9038 28.7013 19.334 29.404 17.6528C29.4759 17.451 29.6119 17.2782 29.7912 17.1609C29.9705 17.0435 30.1832 16.988 30.397 17.0028H32.678C33.362 17.0028 33.507 17.3448 33.362 17.8328C32.5324 19.6913 31.5058 21.4553 30.3 23.0948C30.054 23.4698 29.956 23.6648 30.3 24.1048C30.526 24.4468 31.326 25.1148 31.863 25.7498C32.645 26.5298 33.294 27.4318 33.785 28.4198C33.981 29.0558 33.654 29.3808 33.003 29.3808Z" fill="url(#paint0_angular_262_66)"/><path d="M0.5 23C0.5 10.2975 10.7975 0 23.5 0C36.2025 0 46.5 10.2975 46.5 23C46.5 35.7025 36.2025 46 23.5 46C10.7975 46 0.5 35.7025 0.5 23Z" fill="#869BDF" fill-opacity="0.14"/><path d="M1 23C1 10.5736 11.0736 0.5 23.5 0.5C35.9264 0.5 46 10.5736 46 23C46 35.4264 35.9264 45.5 23.5 45.5C11.0736 45.5 1 35.4264 1 23Z" stroke="#535488" stroke-opacity="0.4"/><defs><radialGradient id="paint0_angular_262_66" cx="0" cy="0" r="1" gradientUnits="userSpaceOnUse" gradientTransform="translate(22.1562 17.0005) rotate(-94.2352) scale(7.78311 13.5625)"><stop offset="0.00520833" stop-color="#FBE308"/><stop offset="0.317708" stop-color="#0AD3FF"/><stop offset="0.552083" stop-color="#31DC61" stop-opacity="0.92"/><stop offset="0.796875" stop-color="#0085FF"/></radialGradient></defs></svg>