<svg viewBox="0 0 64 64" xmlns="http://www.w3.org/2000/svg">
<g>
<path d="m61.941 32.487a18.864 18.864 0 0 0 -3.162-9.045l-1.66 1.116a16.948 16.948 0 0 1 -2.786 22.107 1 1 0 0 0 -.333.745v12.59h-18v-5a1 1 0 0 0 -1-1h-5v-2h7a5.006 5.006 0 0 0 5-5v-6h2.919a2 2 0 0 0 1.562-3.25l-6.481-8.104a18.856 18.856 0 0 0 -1.488-7.036l-1.842.78a16.893 16.893 0 0 1 1.33 6.61 1 1 0 0 0 .219.625l6.7 8.375h-3.919a1 1 0 0 0 -1 1v7a3 3 0 0 1 -3 3h-8a1 1 0 0 0 -1 1v3h-1a3 3 0 0 1 -3-3v-7a1 1 0 0 0 -1-1h-3.919l6.7-8.375a1 1 0 0 0 .219-.625c0-.334.016-.667.035-1h4.551l-1.293 1.293 1.414 1.414 3-3a1 1 0 0 0 0-1.414l-3-3-1.414 1.414 1.293 1.293h-4.311a16.633 16.633 0 0 1 .39-1.723l-1.922-.554a18.8 18.8 0 0 0 -.503 2.277h-3.24a11 11 0 0 1 0-22h9.586l-1.293 1.293 1.414 1.414 3-3a1 1 0 0 0 0-1.414l-3-3-1.414 1.414 1.293 1.293h-9.586a13 13 0 0 0 0 26h3.036c-.011.215-.029.43-.033.646l-6.484 8.1a2 2 0 0 0 1.562 3.254h2.919v6a5.006 5.006 0 0 0 5 5h1v4h-18v-16.59a1 1 0 0 0 -.333-.745 16.948 16.948 0 0 1 -2.786-22.107l-1.66-1.116a18.949 18.949 0 0 0 2.779 24.409v17.149a1 1 0 0 0 1 1h20a1 1 0 0 0 1-1v-5h4v5a1 1 0 0 0 1 1h20a1 1 0 0 0 1-1v-13.149a18.887 18.887 0 0 0 5.941-15.364z"/>
<path d="m43.961 23h-1.961v2h2v2a2 2 0 0 0 2 2h4a2 2 0 0 0 2-2v-2h2v-2h-1.963a4.974 4.974 0 0 1 1.5-3.23 7.99 7.99 0 0 0 .073-11.47 7.831 7.831 0 0 0 -5.745-2.3 8.093 8.093 0 0 0 -7.86 7.7 8.011 8.011 0 0 0 2.387 5.99 5.17 5.17 0 0 1 1.569 3.31zm2.039 4v-2h4v2zm1.9-19a5.889 5.889 0 0 1 4.31 1.722 5.989 5.989 0 0 1 -.058 8.6 7.007 7.007 0 0 0 -2.142 4.678h-4.02a7.162 7.162 0 0 0 -2.2-4.731 5.929 5.929 0 0 1 -1.79-4.491 6.069 6.069 0 0 1 5.9-5.778z"/>
<path d="m47 16.816v4.184h2v-4.184a3 3 0 0 0 2-2.816h-2a1 1 0 0 1 -2 0h-2a3 3 0 0 0 2 2.816z"/>
<path d="m47 2h2v2h-2z"/>
<path d="m41.5 3.473h2v2h-2z" transform="matrix(.866 -.5 .5 .866 3.455 21.846)"/>
<path d="m37.474 7.5h2v2h-2z" transform="matrix(.5 -.866 .866 .5 11.875 37.569)"/>
<path d="m36 13h2v2h-2z"/>
<path d="m37.474 18.5h2v2h-2z" transform="matrix(.866 -.5 .5 .866 -4.596 21.845)"/>
<path d="m56.526 18.5h2v2h-2z" transform="matrix(.5 -.866 .866 .5 11.874 59.568)"/>
<path d="m58 13h2v2h-2z"/>
<path d="m56.526 7.5h2v2h-2z" transform="matrix(.866 -.5 .5 .866 3.455 29.897)"/>
<path d="m52.5 3.473h2v2h-2z" transform="matrix(.5 -.866 .866 .5 22.88 48.572)"/>
<path d="m29.243 21.97a1 1 0 0 0 .757-.97v-2a1 1 0 0 0 -.757-.97l-1.668-.418q-.106-.292-.238-.574l.884-1.474a1 1 0 0 0 -.15-1.221l-1.414-1.414a1 1 0 0 0 -1.222-.151l-1.473.884c-.188-.087-.379-.166-.575-.237l-.417-1.667a1 1 0 0 0 -.97-.758h-2a1 1 0 0 0 -.97.758l-.417 1.667c-.2.071-.387.15-.575.237l-1.473-.884a1 1 0 0 0 -1.222.151l-1.414 1.414a1 1 0 0 0 -.15 1.221l.884 1.474q-.132.282-.238.574l-1.668.418a1 1 0 0 0 -.757.97v2a1 1 0 0 0 .757.97l1.668.418c.071.194.15.386.238.574l-.884 1.473a1 1 0 0 0 .15 1.221l1.414 1.415a1 1 0 0 0 1.222.151l1.473-.884c.188.087.379.166.575.237l.417 1.667a1 1 0 0 0 .97.758h2a1 1 0 0 0 .97-.758l.417-1.667c.2-.071.387-.15.575-.237l1.473.884a1 1 0 0 0 1.222-.151l1.414-1.415a1 1 0 0 0 .15-1.221l-.884-1.473c.088-.188.167-.38.238-.574zm-2.7-1.387a1 1 0 0 0 -.723.711 5 5 0 0 1 -.5 1.2 1 1 0 0 0 .008 1.016l.772 1.29-.31.309-1.282-.769a1.006 1.006 0 0 0 -1.016-.008 4.983 4.983 0 0 1 -1.2.5 1 1 0 0 0 -.71.724l-.363 1.444h-.438l-.364-1.452a1 1 0 0 0 -.71-.724 4.983 4.983 0 0 1 -1.2-.5 1 1 0 0 0 -1.016.008l-1.282.769-.309-.301.769-1.283a1 1 0 0 0 .008-1.016 5 5 0 0 1 -.5-1.2 1 1 0 0 0 -.723-.711l-1.454-.37v-.44l1.453-.363a1 1 0 0 0 .723-.711 5 5 0 0 1 .5-1.2 1 1 0 0 0 -.008-1.016l-.768-1.285.309-.31 1.283.77a1 1 0 0 0 1.016.008 4.983 4.983 0 0 1 1.2-.5 1 1 0 0 0 .71-.724l.363-1.449h.438l.364 1.452a1 1 0 0 0 .71.724 4.983 4.983 0 0 1 1.2.5 1 1 0 0 0 1.016-.008l1.291-.768.309.31-.769 1.283a1 1 0 0 0 -.008 1.016 5 5 0 0 1 .5 1.2 1 1 0 0 0 .723.711l1.445.36v.44z"/>
<path d="m21 16a4 4 0 1 0 4 4 4 4 0 0 0 -4-4zm0 6a2 2 0 1 1 2-2 2 2 0 0 1 -2 2z"/>
<path d="m22 3h2v2h-2z"/>
<path d="m18 3h2v2h-2z"/>
<path d="m14 3h2v2h-2z"/>
<path d="m26 35h2v2h-2z"/>
<path d="m18 35h2v2h-2z"/>
</g>
</svg>
