<svg id="Layer_5" enable-background="new 0 0 64 64" viewBox="0 0 64 64" xmlns="http://www.w3.org/2000/svg">
<g>
<path d="m23 42.174v-1.556l.614-.307c4.556-2.277 7.386-6.856 7.386-11.95 0-7.367-5.994-13.361-13.361-13.361h-6.139c-3.033 0-5.5 2.467-5.5 5.5 0 2.722 1.99 4.982 4.59 5.418-.004.01-.01.019-.013.029l-2.372 6.326c-.136.362-.205.743-.205 1.129 0 1.387.884 2.614 2.2 3.052l.8.267v1.062c0 1.774 1.443 3.217 3.218 3.217h.782v1.174c-7.099 1.552-12.56 7.521-13.415 14.791l-.71 6.035h36.249l-.71-6.035c-.854-7.27-6.315-13.239-13.414-14.791zm-4 18.412-1.877-1.877 1.631-5.709h.491l1.631 5.709zm-3.418-16.477 2.098 2.798-1.916 1.916-.516-4.643c.11-.027.222-.048.334-.071zm3.741 6.891h-.646l-.647-1.616.97-.97.97.97zm.997-4.094 2.098-2.798c.111.023.223.044.334.07l-.516 4.643zm-12.32-26.406c0-1.93 1.57-3.5 3.5-3.5h6.139c6.264 0 11.361 5.097 11.361 11.361 0 4.221-2.297 8.013-6 9.996v-2.943l1.121-1.121c.567-.566.879-1.32.879-2.122v-.171c0-1.304-.836-2.416-2-2.829v-1.171c0-2.206-1.794-4-4-4h-5.614c-.131 0-.259.013-.386.03v-.03h-1.5c-1.93 0-3.5-1.57-3.5-3.5zm6.218 18.5c-.672 0-1.218-.546-1.218-1.217v-2.503l-2.167-.723c-.499-.166-.833-.63-.833-1.155 0-.146.026-.291.078-.428l2.372-6.325c.145-.388.522-.649.936-.649h5.614c1.103 0 2 .897 2 2v3h1c.551 0 1 .449 1 1v.171c0 .267-.104.519-.293.708l-1.707 1.707v8.081l-2 2.667-2-2.667v-1.667h2v-2zm-10.646 18.199c.668-5.676 4.518-10.444 9.73-12.426l.934 8.405 2.256-2.256.453 1.132-2.068 7.237 1.709 1.709h-7.469l.877-7.89-1.988-.22-.901 8.11h-3.98zm27.323 3.801-.901-8.11-1.987.221.876 7.889h-7.469l1.709-1.709-2.068-7.237.453-1.132 2.256 2.256.934-8.405c5.213 1.982 9.063 6.75 9.73 12.426l.447 3.801z" fill="#ffffff" style="fill: rgb(252, 252, 252);"></path>
<path d="m59.994 33.286c-1.909-1.706-4.474-2.518-7.039-2.227-4.051.458-7.365 3.723-7.88 7.763-.447 3.509 1.118 6.866 4.084 8.761.519.331.84.97.84 1.667v2.75c0 1.654 1.346 3 3 3h2c1.654 0 3-1.346 3-3v-2.792c0-.669.33-1.297.861-1.639 2.593-1.665 4.14-4.495 4.14-7.569 0-2.56-1.096-5.007-3.006-6.714zm-4.994 19.714h-2c-.551 0-1-.449-1-1v-1h4v1c0 .551-.449 1-1 1zm-2-13c0-.551.449-1 1-1s1 .449 1 1-.449 1-1 1-1-.449-1-1zm4.78 5.887c-1.057.68-1.702 1.833-1.767 3.113h-1.013v-6.184c1.161-.414 2-1.514 2-2.816 0-1.654-1.346-3-3-3s-3 1.346-3 3c0 1.302.839 2.402 2 2.816v6.184h-1.015c-.074-1.292-.711-2.44-1.748-3.103-2.309-1.475-3.526-4.089-3.177-6.822.399-3.137 2.974-5.673 6.12-6.029.278-.031.554-.046.829-.046 1.725 0 3.353.617 4.652 1.778 1.486 1.327 2.339 3.231 2.339 5.222 0 2.39-1.204 4.591-3.22 5.887z" fill="#ffffff" style="fill: rgb(252, 252, 252);"></path>
<path d="m15 5.708c0-1.493 1.215-2.708 2.708-2.708h.584c1.493 0 2.708 1.215 2.708 2.708 0 1.033-.574 1.961-1.497 2.422l-2.503 1.252v3.618h2v-2.382l1.397-.699c1.606-.802 2.603-2.416 2.603-4.211 0-2.596-2.112-4.708-4.708-4.708h-.584c-2.596 0-4.708 2.112-4.708 4.708v1.292h2z" fill="#ffffff" style="fill: rgb(252, 252, 252);"></path>
<path d="m61.679 6.819.595-1.273-3.82-3.82-1.273.595-.48-1.321h-5.401l-.48 1.321-1.273-.595-3.82 3.82.595 1.273-1.322.48v5.401l1.321.48-.595 1.273 3.82 3.82 1.273-.595.48 1.322h5.401l.48-1.321 1.273.595 3.82-3.82-.595-1.273 1.322-.48v-5.402zm-.679 4.48-.823.299-.448.214-.422 1.019.561 1.201-1.837 1.837-1.201-.561-1.079.447-.452 1.245h-2.599l-.299-.823-.214-.448-1.019-.422-1.201.561-1.837-1.837.561-1.201-.447-1.079-1.244-.452v-2.598l.823-.299.448-.214.422-1.019-.561-1.201 1.837-1.837 1.202.562 1.077-.447.453-1.246h2.599l.299.823.211.447 1.019.423 1.202-.562 1.837 1.837-.561 1.201.447 1.079 1.246.453z" fill="#ffffff" style="fill: rgb(252, 252, 252);"></path>
<path d="m54 5c-2.757 0-5 2.243-5 5s2.243 5 5 5 5-2.243 5-5-2.243-5-5-5zm0 8c-1.654 0-3-1.346-3-3s1.346-3 3-3 3 1.346 3 3-1.346 3-3 3z" fill="#ffffff" style="fill: rgb(252, 252, 252);"></path>
<path d="m53 21v5.132l-1.445-.964-1.11 1.664 3.555 2.37 3.555-2.37-1.11-1.664-1.445.964v-5.132z" fill="#ffffff" style="fill: rgb(252, 252, 252);"></path>
<path d="m39.168 7.555.964 1.445h-14.132v2h14.132l-.964 1.445 1.664 1.11 2.37-3.555-2.37-3.555z" fill="#ffffff" style="fill: rgb(252, 252, 252);"></path>
<path d="m32.832 37.555-1.664-1.11-2.37 3.555 2.37 3.555 1.664-1.11-.964-1.445h11.132v-2h-11.132z" fill="#ffffff" style="fill: rgb(252, 252, 252);"></path>
</g>
</svg>
