<!-- icon666.com - MILLIONS vector ICONS FREE --><svg viewBox="0 0 511.998 511" xmlns="http://www.w3.org/2000/svg"><path d="m101.515625 286.496094-18.871094 18.867187-13.71875-13.71875v-43.511719h8.347657v-14.996093h-8.347657v-50.464844l-27.742187-27.742187h-41.183594v208.53125l109.324219 109.328124v39.617188h110.828125v-130.136719l-95.773438-95.773437zm103.636719 210.914062h-80.828125v-20.230468h29.394531v-14.996094h-33.789062l-104.933594-104.933594v-118.011719h20.488281v-14.996093h-20.488281v-54.316407h19.976562l18.957032 18.960938v108.96875l18.109374 18.113281-1.644531 1.644531v22.863281l54.382813 54.382813 10.601562-10.605469-49.984375-49.988281v-10.441406l22.332031-22.332031h10.4375l86.988282 86.988281zm0 0"/><path d="m470.816406 154.929688-27.742187 27.746093v50.460938h-8.347657v14.996093h8.347657v43.511719l-13.71875 13.71875-18.871094-18.867187h-22.863281l-95.773438 95.773437v130.136719h110.824219v-39.617188l109.324219-109.328124v-208.53125zm-78.746094 307.253906h-33.789062v14.996094h29.394531v20.230468h-80.828125v-108.929687l86.984375-86.988281h10.441407l22.332031 22.332031v10.441406l-49.988281 49.988281 10.605468 10.605469 54.382813-54.382813v-22.867187l-1.648438-1.644531 18.113281-18.109375v-108.96875l18.957032-18.960938h19.972656v54.316407h-20.484375v14.996093h20.484375v118.011719zm0 0"/><path d="m85.621094 277.214844h14.996094v-71.191406l-13.890626-13.890626-10.605468 10.605469 9.5 9.496094zm0 0"/><path d="m426.378906 212.234375 9.5-9.496094-10.605468-10.605469-13.890626 13.890626v71.191406h14.996094zm0 0"/><path d="m298.207031 228.503906 10.929688-10.929687v62.710937l-6.328125 6.328125h-4.664063v15h10.875l7.617188-7.617187 7.613281 7.617187h33.890625v-69.660156h13.449219l-4.84375-25.738281h4.019531l14.007813-14.007813v-98.113281l-16.582032-16.582031h-21.832031l9.011719-9.011719v-29.265625c0-21.359375-17.375-38.734375-38.734375-38.734375s-38.734375 17.375-38.734375 38.734375v29.265625l24.007812 24.007812h60.066406l7.796876 7.796876v4.523437h-26.628907v48.898437h-19.132812v15h20.414062l7.058594 37.488282 2.023437 10.742187h-43.753906l.210938-.210937v-76.640625l-13.730469-13.734375h-13.226563l4.429688-4.429688v-23.152344c0-17.335937-14.105469-31.4375-31.4375-31.4375s-31.4375 14.101563-31.4375 31.4375v23.152344l4.429688 4.429688h-13.226563l-13.734375 13.734375v50.761719h-14.167969v89.417968l-6.328125 6.328125h-12.679687v-174.289062h-15v12.214843h-11.632813v-24.234374l7.800782-7.796876h60.066406l24.007812-24.007812v-29.265625c0-21.359375-17.375-38.734375-38.734375-38.734375s-38.734375 17.375-38.734375 38.734375v29.265625l9.011719 9.011719h-21.828125l-16.585938 16.582031v98.113281l14.007813 14.007813h12.621094v95.398437h33.890625l7.617187-7.617187 7.617188 7.617187h10.875v-15h-4.664063l-6.328125-6.328125v-62.710937l10.929688 10.933593h8.648437v73.105469h28.449219l5.109375-5.113281 5.109375 5.113281h28.449219v-73.105469h8.648437zm9.914063-150.992187-15.222656-15.222657v-23.058593c0-13.085938 10.648437-23.734375 23.738281-23.734375 13.089843 0 23.738281 10.648437 23.738281 23.734375v23.058593l-15.222656 15.222657zm50.023437 42.3125h11.632813v66.171875l-5.222656 5.222656h-.632813l-5.777344-30.691406zm-15 112.128906v54.660156h-12.679687l-6.328125-6.328125v-48.332031zm-171.519531-169.664063v-23.054687c0-13.089844 10.648438-23.738281 23.738281-23.738281 13.089844 0 23.738281 10.648437 23.738281 23.738281v23.054687l-15.222656 15.222657h-17.03125zm-24.179688 128.929688-5.222656-5.222656v-46.460938h11.632813v51.679688h-6.410157zm147.523438 19.3125-2.972656 2.976562h-2.4375v-36.101562h5.410156zm-55.40625-94.800781v-16.941407c0-9.066406 7.375-16.441406 16.4375-16.441406s16.4375 7.375 16.4375 16.441406v16.941407l-10.636719 10.640625h-11.601562zm-19.558594 97.777343-2.976562-2.976562v-33.125h5.414062v36.101562zm54.558594 73.105469h-7.238281l-3.824219-3.824219v-65.707031h-15v65.707031l-3.824219 3.824219h-7.238281v-131.8125h-14.996094v7.609375h-5.410156v-16.09375l4.949219-4.949218h68.039062l4.949219 4.949218v16.09375h-5.410156v-7.609375h-14.996094zm0 0"/><path d="m419.496094 420.617188-10.605469-10.605469 63.117187-63.117188v-25.785156h14.996094v32zm67.507812-109.507813h-14.996094v-14.996094h14.996094zm0-24.996094h-14.996094v-14.996093h14.996094zm0 0"/></svg>
