<svg width="193" height="79" viewBox="0 0 193 79" fill="none" xmlns="http://www.w3.org/2000/svg"><path d="M33.36 47.915V14.315H41.184L59.712 36.683H56.016V14.315H65.328V47.915H57.504L38.976 25.547H42.672V47.915H33.36ZM82.7839 47.915V44.279L82.3159 43.379V36.683C82.3159 35.603 81.9799 34.775 81.3079 34.199C80.6599 33.599 79.6159 33.299 78.1759 33.299C77.2399 33.299 76.2919 33.455 75.3319 33.767C74.3719 34.055 73.5559 34.463 72.8839 34.991L70.5799 30.347C71.6839 29.627 73.0039 29.075 74.5399 28.691C76.0999 28.283 77.6479 28.079 79.1839 28.079C82.3519 28.079 84.7999 28.811 86.5279 30.275C88.2799 31.715 89.1559 33.983 89.1559 37.079V47.915H82.7839ZM77.0239 48.239C75.4639 48.239 74.1439 47.975 73.0639 47.447C71.9839 46.919 71.1559 46.199 70.5799 45.287C70.0279 44.375 69.7519 43.355 69.7519 42.227C69.7519 41.027 70.0519 39.995 70.6519 39.131C71.2759 38.243 72.2239 37.571 73.4959 37.115C74.7679 36.635 76.4119 36.395 78.4279 36.395H83.0359V39.959H79.3639C78.2599 39.959 77.4799 40.139 77.0239 40.499C76.5919 40.859 76.3759 41.339 76.3759 41.939C76.3759 42.539 76.6039 43.019 77.0599 43.379C77.5159 43.739 78.1399 43.919 78.9319 43.919C79.6759 43.919 80.3479 43.739 80.9479 43.379C81.5719 42.995 82.0279 42.419 82.3159 41.651L83.2519 44.171C82.8919 45.515 82.1839 46.535 81.1279 47.231C80.0959 47.903 78.7279 48.239 77.0239 48.239ZM102.185 48.239C99.6893 48.239 97.7453 47.627 96.3533 46.403C94.9613 45.155 94.2653 43.283 94.2653 40.787V24.047H101.105V40.715C101.105 41.411 101.297 41.963 101.681 42.371C102.065 42.755 102.557 42.947 103.157 42.947C103.973 42.947 104.669 42.743 105.245 42.335L106.937 47.123C106.361 47.507 105.653 47.783 104.813 47.951C103.973 48.143 103.097 48.239 102.185 48.239ZM91.4213 34.235V29.123H105.569V34.235H91.4213ZM121.491 47.915V44.279L121.023 43.379V36.683C121.023 35.603 120.687 34.775 120.015 34.199C119.367 33.599 118.323 33.299 116.883 33.299C115.947 33.299 114.999 33.455 114.039 33.767C113.079 34.055 112.263 34.463 111.591 34.991L109.287 30.347C110.391 29.627 111.711 29.075 113.247 28.691C114.807 28.283 116.355 28.079 117.891 28.079C121.059 28.079 123.507 28.811 125.235 30.275C126.987 31.715 127.863 33.983 127.863 37.079V47.915H121.491ZM115.731 48.239C114.171 48.239 112.851 47.975 111.771 47.447C110.691 46.919 109.863 46.199 109.287 45.287C108.735 44.375 108.459 43.355 108.459 42.227C108.459 41.027 108.759 39.995 109.359 39.131C109.983 38.243 110.931 37.571 112.203 37.115C113.475 36.635 115.119 36.395 117.135 36.395H121.743V39.959H118.071C116.967 39.959 116.187 40.139 115.731 40.499C115.299 40.859 115.083 41.339 115.083 41.939C115.083 42.539 115.311 43.019 115.767 43.379C116.223 43.739 116.847 43.919 117.639 43.919C118.383 43.919 119.055 43.739 119.655 43.379C120.279 42.995 120.735 42.419 121.023 41.651L121.959 44.171C121.599 45.515 120.891 46.535 119.835 47.231C118.803 47.903 117.435 48.239 115.731 48.239ZM132.18 47.915V21.203H139.02V47.915H132.18ZM146.814 55.223C145.782 55.223 144.738 55.055 143.682 54.719C142.65 54.407 141.81 53.987 141.162 53.459L143.538 48.671C143.946 49.031 144.414 49.307 144.942 49.499C145.494 49.715 146.034 49.823 146.562 49.823C147.306 49.823 147.894 49.655 148.326 49.319C148.758 48.983 149.13 48.455 149.442 47.735L150.342 45.467L150.882 44.783L157.506 28.403H164.022L155.598 48.707C154.926 50.387 154.146 51.695 153.258 52.631C152.394 53.591 151.422 54.263 150.342 54.647C149.286 55.031 148.11 55.223 146.814 55.223ZM149.478 48.743L140.874 28.403H147.894L154.23 44.171L149.478 48.743ZM177.038 47.915V44.279L176.57 43.379V36.683C176.57 35.603 176.234 34.775 175.562 34.199C174.914 33.599 173.87 33.299 172.43 33.299C171.494 33.299 170.546 33.455 169.586 33.767C168.626 34.055 167.81 34.463 167.138 34.991L164.834 30.347C165.938 29.627 167.258 29.075 168.794 28.691C170.354 28.283 171.902 28.079 173.438 28.079C176.606 28.079 179.054 28.811 180.782 30.275C182.534 31.715 183.41 33.983 183.41 37.079V47.915H177.038ZM171.278 48.239C169.718 48.239 168.398 47.975 167.318 47.447C166.238 46.919 165.41 46.199 164.834 45.287C164.282 44.375 164.006 43.355 164.006 42.227C164.006 41.027 164.306 39.995 164.906 39.131C165.53 38.243 166.478 37.571 167.75 37.115C169.022 36.635 170.666 36.395 172.682 36.395H177.29V39.959H173.618C172.514 39.959 171.734 40.139 171.278 40.499C170.846 40.859 170.63 41.339 170.63 41.939C170.63 42.539 170.858 43.019 171.314 43.379C171.77 43.739 172.394 43.919 173.186 43.919C173.93 43.919 174.602 43.739 175.202 43.379C175.826 42.995 176.282 42.419 176.57 41.651L177.506 44.171C177.146 45.515 176.438 46.535 175.382 47.231C174.35 47.903 172.982 48.239 171.278 48.239Z" fill="url(#paint0_angular_262_88)"/><path d="M12.096 50.408V49.408H11.096V50.408H12.096ZM27.696 50.408H28.696V49.408H27.696V50.408ZM27.696 57.512V58.512H28.696V57.512H27.696ZM12.096 57.512H11.096V58.512H12.096V57.512ZM12.768 63.656H11.768V64.656H12.768V63.656ZM30.336 63.656H31.336V62.656H30.336V63.656ZM30.336 71V72H31.336V71H30.336ZM3.36 71H2.36V72H3.36V71ZM3.36 37.4V36.4H2.36V37.4H3.36ZM29.712 37.4H30.712V36.4H29.712V37.4ZM29.712 44.744V45.744H30.712V44.744H29.712ZM12.768 44.744V43.744H11.768V44.744H12.768ZM12.096 51.408H27.696V49.408H12.096V51.408ZM26.696 50.408V57.512H28.696V50.408H26.696ZM27.696 56.512H12.096V58.512H27.696V56.512ZM13.096 57.512V50.408H11.096V57.512H13.096ZM12.768 64.656H30.336V62.656H12.768V64.656ZM29.336 63.656V71H31.336V63.656H29.336ZM30.336 70H3.36V72H30.336V70ZM4.36 71V37.4H2.36V71H4.36ZM3.36 38.4H29.712V36.4H3.36V38.4ZM28.712 37.4V44.744H30.712V37.4H28.712ZM29.712 43.744H12.768V45.744H29.712V43.744ZM11.768 44.744V63.656H13.768V44.744H11.768ZM38.622 77.66L38.373 78.6285L38.3763 78.6293L38.622 77.66ZM34.302 75.752L33.4143 75.2915L33.011 76.069L33.7285 76.5712L34.302 75.752ZM36.786 70.964L37.4079 70.1809L36.4573 69.426L35.8983 70.5035L36.786 70.964ZM39.81 72.476L40.1094 71.5218L40.0973 71.5182L39.81 72.476ZM47.37 71.828L46.6735 71.1104L46.6682 71.1156L46.6629 71.1209L47.37 71.828ZM48.594 66.032L47.5962 65.9664L47.594 65.9991V66.032H48.594ZM48.954 60.56L49.9518 60.6256L49.9542 60.5896L49.954 60.5535L48.954 60.56ZM48.918 55.052H47.918L47.918 55.0585L48.918 55.052ZM48.918 51.488V50.488H47.918V51.488H48.918ZM55.434 51.488H56.434V50.488H55.434V51.488ZM52.446 75.644L53.1115 76.3904L52.446 75.644ZM38.01 68.84L37.5281 69.7162L37.5367 69.721L37.5455 69.7255L38.01 68.84ZM34.518 65.564L33.6644 66.0849L33.6696 66.0934L33.6749 66.1018L34.518 65.564ZM34.518 55.592L33.6708 55.0607L33.6684 55.0646L34.518 55.592ZM38.01 52.316L37.5454 51.4304L37.5394 51.4336L38.01 52.316ZM47.046 52.172L46.5499 53.0402L46.5566 53.0441L46.5634 53.0478L47.046 52.172ZM49.71 55.232L48.7917 55.6278L48.7945 55.6345L48.7975 55.6411L49.71 55.232ZM49.71 65.888L48.7975 65.4789L48.7945 65.4855L48.7917 65.4922L49.71 65.888ZM47.046 68.984L47.5421 69.8522L47.046 68.984ZM46.578 64.052L46.1177 63.1642L46.1108 63.1678L46.1039 63.1715L46.578 64.052ZM48.09 62.648L47.2477 62.1089L47.2399 62.1211L47.2325 62.1335L48.09 62.648ZM48.09 58.472L47.2325 58.9865L47.2399 58.9989L47.2477 59.0111L48.09 58.472ZM46.578 57.104L46.1039 57.9845L46.1238 57.9952L46.1442 58.005L46.578 57.104ZM42.222 57.104L42.6558 58.005L42.6692 57.9986L42.6823 57.9918L42.222 57.104ZM40.674 58.472L39.8317 57.9329L39.8239 57.9451L39.8165 57.9575L40.674 58.472ZM40.674 62.648L39.8165 63.1625L39.8239 63.1749L39.8317 63.1871L40.674 62.648ZM42.222 64.052L41.7617 64.9398L42.222 64.052ZM43.986 77.308C42.1915 77.308 40.4864 77.101 38.8677 76.6907L38.3763 78.6293C40.1656 79.083 42.0365 79.308 43.986 79.308V77.308ZM38.871 76.6915C37.2863 76.284 35.9609 75.6926 34.8755 74.9328L33.7285 76.5712C35.0431 77.4914 36.5977 78.172 38.373 78.6285L38.871 76.6915ZM35.1897 76.2125L37.6737 71.4245L35.8983 70.5035L33.4143 75.2915L35.1897 76.2125ZM36.1641 71.7471C37.0974 72.4883 38.2251 73.0446 39.5227 73.4338L40.0973 71.5182C38.9949 71.1874 38.1066 70.7357 37.4079 70.1809L36.1641 71.7471ZM39.5107 73.4301C40.8207 73.8411 42.1097 74.052 43.374 74.052V72.052C42.3343 72.052 41.2473 71.8789 40.1093 71.5219L39.5107 73.4301ZM43.374 74.052C45.3338 74.052 46.9875 73.6247 48.0771 72.5351L46.6629 71.1209C46.1205 71.6633 45.1102 72.052 43.374 72.052V74.052ZM48.0665 72.5456C49.1371 71.5065 49.594 70.0444 49.594 68.336H47.594C47.594 69.6996 47.2349 70.5655 46.6735 71.1104L48.0665 72.5456ZM49.594 68.336V66.032H47.594V68.336H49.594ZM49.5918 66.0976L49.9518 60.6256L47.9562 60.4944L47.5962 65.9664L49.5918 66.0976ZM49.954 60.5535L49.918 55.0455L47.918 55.0585L47.954 60.5665L49.954 60.5535ZM49.918 55.052V51.488H47.918V55.052H49.918ZM48.918 52.488H55.434V50.488H48.918V52.488ZM54.434 51.488V67.436H56.434V51.488H54.434ZM54.434 67.436C54.434 70.9608 53.4874 73.3758 51.7805 74.8976L53.1115 76.3904C55.3886 74.3602 56.434 71.3032 56.434 67.436H54.434ZM51.7805 74.8976C50.0297 76.4586 47.4792 77.308 43.986 77.308V79.308C47.7888 79.308 50.8783 78.3814 53.1115 76.3904L51.7805 74.8976ZM42.798 68.992C41.2243 68.992 39.7887 68.6438 38.4745 67.9545L37.5455 69.7255C39.1593 70.5722 40.9157 70.992 42.798 70.992V68.992ZM38.4919 67.9638C37.1995 67.2529 36.1594 66.2776 35.3611 65.0262L33.6749 66.1018C34.6526 67.6344 35.9405 68.8431 37.5281 69.7162L38.4919 67.9638ZM35.3716 65.0431C34.6176 63.8074 34.222 62.3257 34.222 60.56H32.222C32.222 62.6343 32.6904 64.4886 33.6644 66.0849L35.3716 65.0431ZM34.222 60.56C34.222 58.7938 34.6178 57.3275 35.3676 56.1194L33.6684 55.0646C32.6902 56.6405 32.222 58.4862 32.222 60.56H34.222ZM35.3652 56.1233C36.1628 54.8514 37.1985 53.8822 38.4806 53.1984L37.5394 51.4336C35.9415 52.2858 34.6492 53.5006 33.6708 55.0607L35.3652 56.1233ZM38.4745 53.2015C39.7887 52.5122 41.2243 52.164 42.798 52.164V50.164C40.9157 50.164 39.1593 50.5838 37.5455 51.4305L38.4745 53.2015ZM42.798 52.164C44.3185 52.164 45.5552 52.4719 46.5499 53.0402L47.5421 51.3038C46.1848 50.5281 44.5895 50.164 42.798 50.164V52.164ZM46.5634 53.0478C47.5201 53.575 48.2677 54.4121 48.7917 55.6278L50.6283 54.8362C49.9523 53.2679 48.9239 52.065 47.5286 51.2962L46.5634 53.0478ZM48.7975 55.6411C49.3451 56.8625 49.646 58.4865 49.646 60.56H51.646C51.646 58.3135 51.3229 56.3854 50.6225 54.8229L48.7975 55.6411ZM49.646 60.56C49.646 62.6335 49.3451 64.2575 48.7975 65.4789L50.6225 66.2971C51.3229 64.7346 51.646 62.8065 51.646 60.56H49.646ZM48.7917 65.4922C48.2667 66.71 47.5154 67.564 46.5499 68.1158L47.5421 69.8522C48.9286 69.06 49.9533 67.85 50.6283 66.2838L48.7917 65.4922ZM46.5499 68.1158C45.5552 68.6841 44.3185 68.992 42.798 68.992V70.992C44.5895 70.992 46.1848 70.6279 47.5421 69.8522L46.5499 68.1158ZM44.418 65.556C45.3742 65.556 46.2617 65.3581 47.0521 64.9325L46.1039 63.1715C45.6463 63.4179 45.0938 63.556 44.418 63.556V65.556ZM47.0383 64.9398C47.8433 64.5224 48.488 63.9283 48.9475 63.1625L47.2325 62.1335C46.972 62.5677 46.6087 62.9096 46.1177 63.1642L47.0383 64.9398ZM48.9323 63.1871C49.4306 62.4085 49.666 61.521 49.666 60.56H47.666C47.666 61.183 47.5174 61.6875 47.2477 62.1089L48.9323 63.1871ZM49.666 60.56C49.666 59.599 49.4306 58.7115 48.9323 57.9329L47.2477 59.0111C47.5174 59.4325 47.666 59.937 47.666 60.56H49.666ZM48.9475 57.9575C48.4841 57.1852 47.8306 56.5972 47.0118 56.203L46.1442 58.005C46.6214 58.2348 46.9759 58.5588 47.2325 58.9865L48.9475 57.9575ZM47.0521 56.2235C46.2617 55.7979 45.3742 55.6 44.418 55.6V57.6C45.0938 57.6 45.6463 57.7381 46.1039 57.9845L47.0521 56.2235ZM44.418 55.6C43.4609 55.6 42.568 55.7982 41.7617 56.2162L42.6823 57.9918C43.172 57.7378 43.7431 57.6 44.418 57.6V55.6ZM41.7882 56.203C40.9748 56.5946 40.3167 57.1752 39.8317 57.9329L41.5163 59.0111C41.7993 58.5688 42.1732 58.2374 42.6558 58.005L41.7882 56.203ZM39.8165 57.9575C39.3514 58.7326 39.134 59.6112 39.134 60.56H41.134C41.134 59.9248 41.2766 59.4114 41.5315 58.9865L39.8165 57.9575ZM39.134 60.56C39.134 61.5088 39.3514 62.3874 39.8165 63.1625L41.5315 62.1335C41.2766 61.7086 41.134 61.1952 41.134 60.56H39.134ZM39.8317 63.1871C40.3127 63.9385 40.962 64.5251 41.7617 64.9398L42.6823 63.1642C42.186 62.9069 41.8033 62.5575 41.5163 62.1089L39.8317 63.1871ZM41.7617 64.9398C42.568 65.3578 43.4609 65.556 44.418 65.556V63.556C43.7431 63.556 43.172 63.4182 42.6823 63.1642L41.7617 64.9398ZM71.7448 71H70.7448V72H71.7448V71ZM71.7448 67.364H72.7448V67.1195L72.632 66.9026L71.7448 67.364ZM71.2768 66.464H70.2768V66.7085L70.3896 66.9254L71.2768 66.464ZM70.2688 57.284L69.5894 58.0178L69.6035 58.0308L69.618 58.0433L70.2688 57.284ZM64.2928 56.852L64.5802 57.8098L64.5911 57.8066L64.6019 57.803L64.2928 56.852ZM61.8448 58.076L60.949 58.5204L61.4956 59.6221L62.4626 58.8623L61.8448 58.076ZM59.5408 53.432L58.9945 52.5944L58.2499 53.08L58.645 53.8764L59.5408 53.432ZM63.5008 51.776L63.7434 52.7462L63.7538 52.7435L63.5008 51.776ZM75.4888 53.36L74.8424 54.123L74.8481 54.1278L74.8539 54.1325L75.4888 53.36ZM78.1168 71V72H79.1168V71H78.1168ZM62.0248 70.532L62.464 69.6336L62.0248 70.532ZM59.5408 68.372L58.6853 68.8898L58.6902 68.8979L58.6953 68.906L59.5408 68.372ZM59.6128 62.216L58.7946 61.641L58.7914 61.6456L59.6128 62.216ZM62.4568 60.2L62.7943 61.1413L62.8021 61.1385L62.8099 61.1356L62.4568 60.2ZM71.9968 59.48H72.9968V58.48H71.9968V59.48ZM71.9968 63.044V64.044H72.9968V63.044H71.9968ZM65.9848 63.584L65.3652 62.7991L65.3548 62.8073L65.3446 62.8158L65.9848 63.584ZM66.0208 66.464L65.4012 67.2489L66.0208 66.464ZM69.9088 66.464L70.4233 67.3215L70.4329 67.3157L69.9088 66.464ZM71.2768 64.736L72.2142 64.3878L71.2813 61.876L70.3405 64.3849L71.2768 64.736ZM72.2128 67.256L73.1788 67.5147L73.2613 67.2067L73.1502 66.9078L72.2128 67.256ZM70.0888 70.316L70.6345 71.154L70.6391 71.151L70.0888 70.316ZM72.7448 71V67.364H70.7448V71H72.7448ZM72.632 66.9026L72.164 66.0026L70.3896 66.9254L70.8576 67.8254L72.632 66.9026ZM72.2768 66.464V59.768H70.2768V66.464H72.2768ZM72.2768 59.768C72.2768 58.4663 71.8615 57.3321 70.9196 56.5247L69.618 58.0433C70.0201 58.3879 70.2768 58.9097 70.2768 59.768H72.2768ZM70.9482 56.5502C70.0289 55.699 68.6788 55.384 67.1368 55.384V57.384C68.4748 57.384 69.2128 57.669 69.5894 58.0178L70.9482 56.5502ZM67.1368 55.384C66.0879 55.384 65.0357 55.5591 63.9837 55.901L64.6019 57.803C65.4699 57.5209 66.3137 57.384 67.1368 57.384V55.384ZM64.0055 55.8942C62.9459 56.212 62.0129 56.6722 61.227 57.2897L62.4626 58.8623C63.0207 58.4238 63.7197 58.068 64.5802 57.8098L64.0055 55.8942ZM62.7406 57.6316L60.4366 52.9876L58.645 53.8764L60.949 58.5204L62.7406 57.6316ZM60.0871 54.2696C61.0813 53.6212 62.2942 53.1084 63.7433 52.7461L63.2583 50.8059C61.6354 51.2116 60.2083 51.8028 58.9945 52.5944L60.0871 54.2696ZM63.7538 52.7435C65.2353 52.356 66.6983 52.164 68.1448 52.164V50.164C66.5193 50.164 64.8863 50.38 63.2478 50.8085L63.7538 52.7435ZM68.1448 52.164C71.1697 52.164 73.3555 52.8632 74.8424 54.123L76.1352 52.597C74.1662 50.9288 71.456 50.164 68.1448 50.164V52.164ZM74.8539 54.1325C76.2982 55.3197 77.1168 57.2516 77.1168 60.164H79.1168C79.1168 56.8844 78.1834 54.2803 76.1238 52.5875L74.8539 54.1325ZM77.1168 60.164V71H79.1168V60.164H77.1168ZM78.1168 70H71.7448V72H78.1168V70ZM65.9848 70.324C64.5334 70.324 63.3728 70.0779 62.464 69.6336L61.5856 71.4304C62.8368 72.0421 64.3162 72.324 65.9848 72.324V70.324ZM62.464 69.6336C61.531 69.1775 60.8522 68.5757 60.3863 67.838L58.6953 68.906C59.3814 69.9923 60.3586 70.8305 61.5856 71.4304L62.464 69.6336ZM60.3963 67.8542C59.9444 67.1076 59.7128 66.2685 59.7128 65.312H57.7128C57.7128 66.6115 58.0332 67.8124 58.6853 68.8898L60.3963 67.8542ZM59.7128 65.312C59.7128 64.2862 59.9664 63.4601 60.4342 62.7864L58.7914 61.6456C58.0593 62.6999 57.7128 63.9378 57.7128 65.312H59.7128ZM60.431 62.7909C60.9101 62.1092 61.6685 61.5449 62.7943 61.1413L62.1194 59.2587C60.7012 59.7671 59.5635 60.5468 58.7946 61.6411L60.431 62.7909ZM62.8099 61.1356C63.9284 60.7135 65.4407 60.48 67.3888 60.48V58.48C65.3049 58.48 63.5292 58.7265 62.1038 59.2644L62.8099 61.1356ZM67.3888 60.48H71.9968V58.48H67.3888V60.48ZM70.9968 59.48V63.044H72.9968V59.48H70.9968ZM71.9968 62.044H68.3248V64.044H71.9968V62.044ZM68.3248 62.044C67.1706 62.044 66.098 62.2206 65.3652 62.7991L66.6045 64.3689C66.7836 64.2274 67.2711 64.044 68.3248 64.044V62.044ZM65.3446 62.8158C64.6677 63.3798 64.3368 64.1499 64.3368 65.024H66.3368C66.3368 64.6981 66.4379 64.5082 66.625 64.3522L65.3446 62.8158ZM64.3368 65.024C64.3368 65.9184 64.696 66.6921 65.4012 67.2489L66.6405 65.6791C66.4337 65.5159 66.3368 65.3296 66.3368 65.024H64.3368ZM65.4012 67.2489C66.0882 67.7912 66.9569 68.004 67.8928 68.004V66.004C67.2447 66.004 66.8655 65.8568 66.6405 65.6791L65.4012 67.2489ZM67.8928 68.004C68.8061 68.004 69.658 67.7807 70.4233 67.3215L69.3943 65.6065C68.9597 65.8673 68.4675 66.004 67.8928 66.004V68.004ZM70.4329 67.3157C71.2686 66.8014 71.857 66.0369 72.2131 65.0871L70.3405 64.3849C70.1207 64.9711 69.797 65.3586 69.3847 65.6123L70.4329 67.3157ZM70.3394 65.0842L71.2754 67.6042L73.1502 66.9078L72.2142 64.3878L70.3394 65.0842ZM71.2469 66.9973C70.9434 68.1303 70.369 68.9336 69.5385 69.481L70.6391 71.151C71.9206 70.3064 72.7623 69.0697 73.1788 67.5147L71.2469 66.9973ZM69.5431 69.478C68.7247 70.011 67.5668 70.324 65.9848 70.324V72.324C67.8108 72.324 69.389 71.965 70.6345 71.154L69.5431 69.478ZM82.2987 77.804L82.6019 76.8511L82.595 76.8489L82.5881 76.8468L82.2987 77.804ZM79.7787 76.544L78.8829 76.0995L78.528 76.8148L79.147 77.3192L79.7787 76.544ZM82.1547 71.756L82.8163 71.0062L81.8386 70.1434L81.2589 71.3115L82.1547 71.756ZM83.5587 72.584L83.9231 71.6528L83.9118 71.6483L83.9005 71.6442L83.5587 72.584ZM86.9427 72.404L86.3288 71.6146L86.9427 72.404ZM88.0587 70.82L88.9763 71.2176L88.9825 71.2033L88.9882 71.1888L88.0587 70.82ZM88.9587 68.552L88.1738 67.9324L88.0832 68.0472L88.0292 68.1832L88.9587 68.552ZM89.4987 67.868L90.2836 68.4876L90.3722 68.3754L90.4258 68.2429L89.4987 67.868ZM96.1227 51.488V50.488H95.4484L95.1957 51.1131L96.1227 51.488ZM102.639 51.488L103.562 51.8712L104.136 50.488H102.639V51.488ZM94.2147 71.792L93.291 71.4087L93.2862 71.4206L94.2147 71.792ZM91.8747 75.716L91.1493 75.0277L91.1402 75.0373L91.1314 75.047L91.8747 75.716ZM88.9587 77.732L88.6237 76.7898L88.617 76.7922L88.9587 77.732ZM88.0947 71.828L87.1737 72.2176L87.7402 73.5568L88.788 72.5486L88.0947 71.828ZM79.4907 51.488V50.488H77.9819L78.5697 51.8776L79.4907 51.488ZM86.5107 51.488L87.4386 51.1151L87.1866 50.488H86.5107V51.488ZM92.8467 67.256L93.54 67.9766L94.0261 67.509L93.7746 66.8831L92.8467 67.256ZM85.4307 77.308C84.5089 77.308 83.5671 77.1582 82.6019 76.8511L81.9955 78.7569C83.1423 79.1218 84.2885 79.308 85.4307 79.308V77.308ZM82.5881 76.8468C81.6464 76.5621 80.9326 76.1943 80.4104 75.7688L79.147 77.3192C79.9209 77.9497 80.887 78.4219 82.0093 78.7612L82.5881 76.8468ZM80.6745 76.9885L83.0505 72.2005L81.2589 71.3115L78.8829 76.0995L80.6745 76.9885ZM81.4931 72.5058C81.998 72.9513 82.5753 73.2905 83.217 73.5238L83.9005 71.6442C83.4861 71.4935 83.1275 71.2807 82.8163 71.0062L81.4931 72.5058ZM83.1943 73.5152C83.8483 73.7711 84.5117 73.908 85.1787 73.908V71.908C84.7898 71.908 84.3732 71.8289 83.9231 71.6528L83.1943 73.5152ZM85.1787 73.908C86.0659 73.908 86.8955 73.7076 87.5567 73.1934L86.3288 71.6146C86.126 71.7724 85.7795 71.908 85.1787 71.908V73.908ZM87.5567 73.1934C88.1662 72.7193 88.6247 72.029 88.9763 71.2176L87.1412 70.4224C86.8688 71.051 86.5832 71.4167 86.3288 71.6146L87.5567 73.1934ZM88.9882 71.1888L89.8882 68.9208L88.0292 68.1832L87.1292 70.4512L88.9882 71.1888ZM89.7436 69.1716L90.2836 68.4876L88.7138 67.2484L88.1738 67.9324L89.7436 69.1716ZM90.4258 68.2429L97.0498 51.8629L95.1957 51.1131L88.5717 67.4931L90.4258 68.2429ZM96.1227 52.488H102.639V50.488H96.1227V52.488ZM101.715 51.1048L93.2911 71.4088L95.1384 72.1752L103.562 51.8712L101.715 51.1048ZM93.2862 71.4206C92.6437 73.0269 91.9227 74.2125 91.1493 75.0277L92.6002 76.4043C93.6028 75.3475 94.4417 73.9171 95.1432 72.1634L93.2862 71.4206ZM91.1314 75.047C90.3644 75.8993 89.528 76.4683 88.6237 76.7898L89.2937 78.6742C90.5494 78.2277 91.6571 77.4527 92.618 76.385L91.1314 75.047ZM88.617 76.7922C87.6859 77.1308 86.6278 77.308 85.4307 77.308V79.308C86.8257 79.308 88.1195 79.1012 89.3005 78.6718L88.617 76.7922ZM89.0157 71.4384L80.4117 51.0984L78.5697 51.8776L87.1737 72.2176L89.0157 71.4384ZM79.4907 52.488H86.5107V50.488H79.4907V52.488ZM85.5828 51.8608L91.9188 67.6289L93.7746 66.8831L87.4386 51.1151L85.5828 51.8608ZM92.1534 66.5354L87.4014 71.1074L88.788 72.5486L93.54 67.9766L92.1534 66.5354Z" fill="url(#paint1_angular_262_88)"/><defs><radialGradient id="paint0_angular_262_88" cx="0" cy="0" r="1" gradientUnits="userSpaceOnUse" gradientTransform="translate(101.61 0.915042) rotate(-98.6748) scale(29.8052 105.145)"><stop offset="0.00520833" stop-color="#FBE308"/><stop offset="0.317708" stop-color="#0AD3FF"/><stop offset="0.552083" stop-color="#31DC61" stop-opacity="0.92"/><stop offset="0.796875" stop-color="#0085FF"/></radialGradient><radialGradient id="paint1_angular_262_88" cx="0" cy="0" r="1" gradientUnits="userSpaceOnUse" gradientTransform="translate(45.2504 24) rotate(-97.5912) scale(21.503 66.6214)"><stop offset="0.00520833" stop-color="#FBE308"/><stop offset="0.317708" stop-color="#0AD3FF"/><stop offset="0.552083" stop-color="#31DC61" stop-opacity="0.92"/><stop offset="0.796875" stop-color="#0085FF"/></radialGradient></defs></svg>