<svg width="185" height="52" viewBox="0 0 185 52" fill="none" xmlns="http://www.w3.org/2000/svg"><path d="M24.24 31V8.6H29.456L41.808 23.512H39.344V8.6H45.552V31H40.336L27.984 16.088H30.448V31H24.24ZM57.1893 31V28.576L56.8773 27.976V23.512C56.8773 22.792 56.6533 22.24 56.2053 21.856C55.7733 21.456 55.0773 21.256 54.1172 21.256C53.4933 21.256 52.8613 21.36 52.2213 21.568C51.5813 21.76 51.0373 22.032 50.5893 22.384L49.0533 19.288C49.7893 18.808 50.6693 18.44 51.6933 18.184C52.7333 17.912 53.7653 17.776 54.7893 17.776C56.9013 17.776 58.5333 18.264 59.6853 19.24C60.8533 20.2 61.4373 21.712 61.4373 23.776V31H57.1893ZM53.3493 31.216C52.3093 31.216 51.4293 31.04 50.7093 30.688C49.9893 30.336 49.4373 29.856 49.0533 29.248C48.6853 28.64 48.5013 27.96 48.5013 27.208C48.5013 26.408 48.7013 25.72 49.1013 25.144C49.5173 24.552 50.1493 24.104 50.9973 23.8C51.8453 23.48 52.9413 23.32 54.2853 23.32H57.3573V25.696H54.9093C54.1733 25.696 53.6533 25.816 53.3493 26.056C53.0613 26.296 52.9173 26.616 52.9173 27.016C52.9173 27.416 53.0693 27.736 53.3733 27.976C53.6773 28.216 54.0933 28.336 54.6213 28.336C55.1173 28.336 55.5653 28.216 55.9653 27.976C56.3813 27.72 56.6853 27.336 56.8773 26.824L57.5013 28.504C57.2613 29.4 56.7893 30.08 56.0853 30.544C55.3973 30.992 54.4853 31.216 53.3493 31.216ZM70.1236 31.216C68.4596 31.216 67.1636 30.808 66.2356 29.992C65.3076 29.16 64.8436 27.912 64.8436 26.248V15.088H69.4036V26.2C69.4036 26.664 69.5316 27.032 69.7876 27.304C70.0436 27.56 70.3716 27.688 70.7716 27.688C71.3156 27.688 71.7796 27.552 72.1636 27.28L73.2916 30.472C72.9076 30.728 72.4356 30.912 71.8756 31.024C71.3156 31.152 70.7316 31.216 70.1236 31.216ZM62.9476 21.88V18.472H72.3796V21.88H62.9476ZM82.9939 31V28.576L82.6819 27.976V23.512C82.6819 22.792 82.4579 22.24 82.0099 21.856C81.5779 21.456 80.8819 21.256 79.9219 21.256C79.2979 21.256 78.6659 21.36 78.0259 21.568C77.3859 21.76 76.8419 22.032 76.3939 22.384L74.8579 19.288C75.5939 18.808 76.4739 18.44 77.4979 18.184C78.5379 17.912 79.5699 17.776 80.5939 17.776C82.7059 17.776 84.3379 18.264 85.4899 19.24C86.6579 20.2 87.2419 21.712 87.2419 23.776V31H82.9939ZM79.1539 31.216C78.1139 31.216 77.2339 31.04 76.5139 30.688C75.7939 30.336 75.2419 29.856 74.8579 29.248C74.4899 28.64 74.3059 27.96 74.3059 27.208C74.3059 26.408 74.5059 25.72 74.9059 25.144C75.3219 24.552 75.9539 24.104 76.8019 23.8C77.6499 23.48 78.7459 23.32 80.0899 23.32H83.1619V25.696H80.7139C79.9779 25.696 79.4579 25.816 79.1539 26.056C78.8659 26.296 78.7219 26.616 78.7219 27.016C78.7219 27.416 78.8739 27.736 79.1779 27.976C79.4819 28.216 79.8979 28.336 80.4259 28.336C80.9219 28.336 81.3699 28.216 81.7699 27.976C82.1859 27.72 82.4899 27.336 82.6819 26.824L83.3059 28.504C83.0659 29.4 82.5939 30.08 81.8899 30.544C81.2019 30.992 80.2899 31.216 79.1539 31.216ZM90.1203 31V13.192H94.6803V31H90.1203ZM99.8757 35.872C99.1877 35.872 98.4917 35.76 97.7877 35.536C97.0997 35.328 96.5397 35.048 96.1077 34.696L97.6917 31.504C97.9637 31.744 98.2757 31.928 98.6277 32.056C98.9957 32.2 99.3557 32.272 99.7077 32.272C100.204 32.272 100.596 32.16 100.884 31.936C101.172 31.712 101.42 31.36 101.628 30.88L102.228 29.368L102.588 28.912L107.004 17.992H111.348L105.732 31.528C105.284 32.648 104.764 33.52 104.172 34.144C103.596 34.784 102.948 35.232 102.228 35.488C101.524 35.744 100.74 35.872 99.8757 35.872ZM101.652 31.552L95.9157 17.992H100.596L104.82 28.504L101.652 31.552ZM120.025 31V28.576L119.713 27.976V23.512C119.713 22.792 119.489 22.24 119.041 21.856C118.609 21.456 117.913 21.256 116.953 21.256C116.329 21.256 115.697 21.36 115.057 21.568C114.417 21.76 113.873 22.032 113.425 22.384L111.889 19.288C112.625 18.808 113.505 18.44 114.529 18.184C115.569 17.912 116.601 17.776 117.625 17.776C119.737 17.776 121.369 18.264 122.521 19.24C123.689 20.2 124.273 21.712 124.273 23.776V31H120.025ZM116.185 31.216C115.145 31.216 114.265 31.04 113.545 30.688C112.825 30.336 112.273 29.856 111.889 29.248C111.521 28.64 111.337 27.96 111.337 27.208C111.337 26.408 111.537 25.72 111.937 25.144C112.353 24.552 112.985 24.104 113.833 23.8C114.681 23.48 115.777 23.32 117.121 23.32H120.193V25.696H117.745C117.009 25.696 116.489 25.816 116.185 26.056C115.897 26.296 115.753 26.616 115.753 27.016C115.753 27.416 115.905 27.736 116.209 27.976C116.513 28.216 116.929 28.336 117.457 28.336C117.953 28.336 118.401 28.216 118.801 27.976C119.217 27.72 119.521 27.336 119.713 26.824L120.337 28.504C120.097 29.4 119.625 30.08 118.921 30.544C118.233 30.992 117.321 31.216 116.185 31.216Z" fill="url(#paint0_angular_343_81)"/><path d="M9.072 31.641V30.641H8.072V31.641H9.072ZM20.772 31.641H21.772V30.641H20.772V31.641ZM20.772 36.969V37.969H21.772V36.969H20.772ZM9.072 36.969H8.072V37.969H9.072V36.969ZM9.576 41.577H8.576V42.577H9.576V41.577ZM22.752 41.577H23.752V40.577H22.752V41.577ZM22.752 47.085V48.085H23.752V47.085H22.752ZM2.52 47.085H1.52V48.085H2.52V47.085ZM2.52 21.885V20.885H1.52V21.885H2.52ZM22.284 21.885H23.284V20.885H22.284V21.885ZM22.284 27.393V28.393H23.284V27.393H22.284ZM9.576 27.393V26.393H8.576V27.393H9.576ZM9.072 32.641H20.772V30.641H9.072V32.641ZM19.772 31.641V36.969H21.772V31.641H19.772ZM20.772 35.969H9.072V37.969H20.772V35.969ZM10.072 36.969V31.641H8.072V36.969H10.072ZM9.576 42.577H22.752V40.577H9.576V42.577ZM21.752 41.577V47.085H23.752V41.577H21.752ZM22.752 46.085H2.52V48.085H22.752V46.085ZM3.52 47.085V21.885H1.52V47.085H3.52ZM2.52 22.885H22.284V20.885H2.52V22.885ZM21.284 21.885V27.393H23.284V21.885H21.284ZM22.284 26.393H9.576V28.393H22.284V26.393ZM8.576 27.393V41.577H10.576V27.393H8.576ZM28.4355 51.525L28.1865 52.4935L28.1898 52.4943L28.4355 51.525ZM25.5555 50.253L24.6678 49.7924L24.2645 50.5699L24.982 51.0722L25.5555 50.253ZM27.2115 47.061L27.8334 46.2779L26.8828 45.523L26.3238 46.6004L27.2115 47.061ZM29.2275 48.069L29.5269 47.1147L29.5148 47.1111L29.2275 48.069ZM34.2675 47.637L33.571 46.9194L33.5657 46.9246L33.5604 46.9299L34.2675 47.637ZM35.0835 43.773L34.0857 43.7073L34.0835 43.7401V43.773H35.0835ZM35.3235 40.125L36.3213 40.1906L36.3237 40.1546L36.3235 40.1184L35.3235 40.125ZM35.2995 36.453H34.2995L34.2995 36.4595L35.2995 36.453ZM35.2995 34.077V33.077H34.2995V34.077H35.2995ZM39.6435 34.077H40.6435V33.077H39.6435V34.077ZM37.6515 50.181L38.317 50.9274L37.6515 50.181ZM28.0275 45.645L27.5456 46.5212L27.5542 46.5259L27.563 46.5305L28.0275 45.645ZM25.6995 43.461L24.8459 43.9818L24.8511 43.9904L24.8564 43.9988L25.6995 43.461ZM25.6995 36.813L24.8523 36.2817L24.8499 36.2856L25.6995 36.813ZM28.0275 34.629L27.5629 33.7434L27.5569 33.7466L28.0275 34.629ZM34.0515 34.533L33.5554 35.4012L33.5621 35.4051L33.5689 35.4088L34.0515 34.533ZM35.8275 36.573L34.9092 36.9688L34.912 36.9754L34.915 36.982L35.8275 36.573ZM35.8275 43.677L34.915 43.2679L34.912 43.2745L34.9092 43.2811L35.8275 43.677ZM34.0515 45.741L34.5476 46.6092L34.0515 45.741ZM33.7395 42.453L33.2792 41.5652L33.2723 41.5688L33.2654 41.5725L33.7395 42.453ZM34.7475 41.517L33.9052 40.9779L33.8974 40.9901L33.89 41.0025L34.7475 41.517ZM34.7475 38.733L33.89 39.2475L33.8974 39.2598L33.9052 39.272L34.7475 38.733ZM33.7395 37.821L33.2654 38.7014L33.2853 38.7122L33.3057 38.722L33.7395 37.821ZM30.8355 37.821L31.2693 38.722L31.2827 38.7155L31.2958 38.7087L30.8355 37.821ZM29.8035 38.733L28.9612 38.1939L28.9534 38.2061L28.946 38.2185L29.8035 38.733ZM29.8035 41.517L28.946 42.0315L28.9534 42.0438L28.9612 42.056L29.8035 41.517ZM30.8355 42.453L30.3752 43.3407L30.8355 42.453ZM32.0115 50.957C30.841 50.957 29.7319 50.822 28.6812 50.5556L28.1898 52.4943C29.4111 52.8039 30.686 52.957 32.0115 52.957V50.957ZM28.6845 50.5565C27.6598 50.293 26.8144 49.9135 26.129 49.4337L24.982 51.0722C25.8966 51.7124 26.9712 52.181 28.1865 52.4935L28.6845 50.5565ZM26.4432 50.7135L28.0992 47.5215L26.3238 46.6004L24.6678 49.7924L26.4432 50.7135ZM26.5896 47.8441C27.2509 48.3692 28.0426 48.7575 28.9402 49.0268L29.5148 47.1111C28.8124 46.9004 28.2601 46.6167 27.8334 46.2779L26.5896 47.8441ZM28.9282 49.0231C29.8302 49.3061 30.7232 49.453 31.6035 49.453V47.453C30.9478 47.453 30.2568 47.3438 29.5268 47.1148L28.9282 49.0231ZM31.6035 49.453C32.9473 49.453 34.157 49.1617 34.9746 48.3441L33.5604 46.9299C33.29 47.2003 32.7237 47.453 31.6035 47.453V49.453ZM34.964 48.3545C35.7626 47.5794 36.0835 46.5054 36.0835 45.309H34.0835C34.0835 46.1605 33.8604 46.6385 33.571 46.9194L34.964 48.3545ZM36.0835 45.309V43.773H34.0835V45.309H36.0835ZM36.0813 43.8386L36.3213 40.1906L34.3257 40.0593L34.0857 43.7073L36.0813 43.8386ZM36.3235 40.1184L36.2995 36.4464L34.2995 36.4595L34.3235 40.1315L36.3235 40.1184ZM36.2995 36.453V34.077H34.2995V36.453H36.2995ZM35.2995 35.077H39.6435V33.077H35.2995V35.077ZM38.6435 34.077V44.709H40.6435V34.077H38.6435ZM38.6435 44.709C38.6435 47.0018 38.0289 48.5048 36.986 49.4345L38.317 50.9274C39.9301 49.4891 40.6435 47.3442 40.6435 44.709H38.6435ZM36.986 49.4345C35.8992 50.4036 34.2887 50.957 32.0115 50.957V52.957C34.5983 52.957 36.7478 52.3264 38.317 50.9274L36.986 49.4345ZM31.2195 45.413C30.2218 45.413 29.3182 45.1928 28.4921 44.7594L27.563 46.5305C28.6888 47.1211 29.9132 47.413 31.2195 47.413V45.413ZM28.5094 44.7687C27.697 44.3219 27.0449 43.7106 26.5426 42.9231L24.8564 43.9988C25.5381 45.0674 26.438 45.912 27.5456 46.5212L28.5094 44.7687ZM26.5531 42.9401C26.0871 42.1763 25.8355 41.2506 25.8355 40.125H23.8355C23.8355 41.5593 24.1599 42.8576 24.8459 43.9818L26.5531 42.9401ZM25.8355 40.125C25.8355 38.9988 26.0873 38.0845 26.5491 37.3403L24.8499 36.2856C24.1597 37.3975 23.8355 38.6911 23.8355 40.125H25.8355ZM26.5467 37.3442C27.0483 36.5444 27.696 35.9391 28.4981 35.5113L27.5569 33.7466C26.439 34.3428 25.5347 35.1935 24.8523 36.2817L26.5467 37.3442ZM28.492 35.5145C29.3182 35.0811 30.2218 34.861 31.2195 34.861V32.861C29.9132 32.861 28.6888 33.1528 27.563 33.7434L28.492 35.5145ZM31.2195 34.861C32.188 34.861 32.9527 35.0568 33.5554 35.4012L34.5476 33.6647C33.5823 33.1131 32.459 32.861 31.2195 32.861V34.861ZM33.5689 35.4088C34.1336 35.7199 34.5852 36.2171 34.9092 36.9688L36.7458 36.1771C36.2698 35.0728 35.5374 34.21 34.5341 33.6571L33.5689 35.4088ZM34.915 36.982C35.2546 37.7395 35.4515 38.7715 35.4515 40.125H37.4515C37.4515 38.5985 37.2324 37.2624 36.74 36.1639L34.915 36.982ZM35.4515 40.125C35.4515 41.4785 35.2546 42.5104 34.915 43.2679L36.74 44.086C37.2324 42.9875 37.4515 41.6515 37.4515 40.125H35.4515ZM34.9092 43.2811C34.5842 44.035 34.1289 44.545 33.5554 44.8727L34.5476 46.6092C35.5421 46.0409 36.2708 45.1749 36.7458 44.0728L34.9092 43.2811ZM33.5554 44.8727C32.9527 45.2171 32.188 45.413 31.2195 45.413V47.413C32.459 47.413 33.5823 47.1608 34.5476 46.6092L33.5554 44.8727ZM32.2995 43.789C32.9837 43.789 33.6312 43.647 34.2136 43.3334L33.2654 41.5725C33.0158 41.7069 32.7033 41.789 32.2995 41.789V43.789ZM34.1998 43.3407C34.7888 43.0353 35.2655 42.5973 35.605 42.0315L33.89 41.0025C33.7495 41.2366 33.5542 41.4226 33.2792 41.5652L34.1998 43.3407ZM35.5898 42.056C35.9601 41.4774 36.1315 40.8219 36.1315 40.125H34.1315C34.1315 40.484 34.0469 40.7565 33.9052 40.9779L35.5898 42.056ZM36.1315 40.125C36.1315 39.428 35.9601 38.7725 35.5898 38.1939L33.9052 39.272C34.0469 39.4934 34.1315 39.7659 34.1315 40.125H36.1315ZM35.605 38.2185C35.2616 37.6462 34.7761 37.2102 34.1733 36.92L33.3057 38.722C33.5669 38.8478 33.7534 39.0198 33.89 39.2475L35.605 38.2185ZM34.2136 36.9405C33.6312 36.6269 32.9837 36.485 32.2995 36.485V38.485C32.7033 38.485 33.0158 38.567 33.2654 38.7014L34.2136 36.9405ZM32.2995 36.485C31.6144 36.485 30.9655 36.6271 30.3752 36.9332L31.2958 38.7087C31.5695 38.5668 31.8966 38.485 32.2995 38.485V36.485ZM30.4017 36.92C29.8043 37.2076 29.3182 37.6361 28.9612 38.1939L30.6458 39.272C30.8008 39.0298 31.0027 38.8503 31.2693 38.722L30.4017 36.92ZM28.946 38.2185C28.6009 38.7936 28.4435 39.4402 28.4435 40.125H30.4435C30.4435 39.7538 30.5261 39.4723 30.661 39.2475L28.946 38.2185ZM28.4435 40.125C28.4435 40.8098 28.6009 41.4563 28.946 42.0315L30.661 41.0025C30.5261 40.7776 30.4435 40.4962 30.4435 40.125H28.4435ZM28.9612 42.056C29.3142 42.6075 29.7915 43.0381 30.3752 43.3407L31.2958 41.5652C31.0155 41.4199 30.8048 41.2264 30.6458 40.9779L28.9612 42.056ZM30.3752 43.3407C30.9655 43.6468 31.6144 43.789 32.2995 43.789V41.789C31.8966 41.789 31.5695 41.7071 31.2958 41.5652L30.3752 43.3407ZM50.5174 47.085H49.5174V48.085H50.5174V47.085ZM50.5174 44.661H51.5174V44.4165L51.4046 44.1996L50.5174 44.661ZM50.2054 44.061H49.2054V44.3054L49.3182 44.5223L50.2054 44.061ZM49.5334 37.941L48.854 38.6747L48.868 38.6877L48.8826 38.7002L49.5334 37.941ZM45.5494 37.653L45.8367 38.6108L45.8476 38.6075L45.8585 38.604L45.5494 37.653ZM43.9174 38.469L43.0216 38.9134L43.5681 40.0151L44.5352 39.2553L43.9174 38.469ZM42.3814 35.373L41.8351 34.5353L41.0905 35.021L41.4856 35.8174L42.3814 35.373ZM45.0214 34.269L45.2639 35.2392L45.2744 35.2364L45.0214 34.269ZM53.0134 35.325L52.367 36.0879L52.3727 36.0928L52.3784 36.0975L53.0134 35.325ZM54.7654 47.085V48.085H55.7654V47.085H54.7654ZM44.0374 46.773L44.4766 45.8746L44.0374 46.773ZM42.3814 45.333L41.5259 45.8508L41.5308 45.8589L41.5359 45.867L42.3814 45.333ZM42.4294 41.229L41.6112 40.654L41.608 40.6586L42.4294 41.229ZM44.3254 39.885L44.6628 40.8263L44.6707 40.8235L44.6784 40.8206L44.3254 39.885ZM50.6854 39.405H51.6854V38.405H50.6854V39.405ZM50.6854 41.781V42.781H51.6854V41.781H50.6854ZM46.6774 42.141L46.0577 41.3561L46.0474 41.3643L46.0372 41.3727L46.6774 42.141ZM46.7014 44.061L46.0817 44.8458L46.7014 44.061ZM49.2934 44.061L49.8079 44.9185L49.8175 44.9126L49.2934 44.061ZM50.2054 42.909L51.1428 42.5608L50.2099 40.049L49.269 42.5578L50.2054 42.909ZM50.8294 44.589L51.7953 44.8477L51.8778 44.5397L51.7668 44.2408L50.8294 44.589ZM49.4134 46.629L49.9591 47.467L49.9637 47.4639L49.4134 46.629ZM51.5174 47.085V44.661H49.5174V47.085H51.5174ZM51.4046 44.1996L51.0926 43.5996L49.3182 44.5223L49.6302 45.1223L51.4046 44.1996ZM51.2054 44.061V39.597H49.2054V44.061H51.2054ZM51.2054 39.597C51.2054 38.6552 50.9021 37.7971 50.1842 37.1817L48.8826 38.7002C49.0607 38.8529 49.2054 39.0987 49.2054 39.597H51.2054ZM50.2128 37.2072C49.5094 36.5559 48.5073 36.341 47.4454 36.341V38.341C48.3034 38.341 48.6933 38.526 48.854 38.6747L50.2128 37.2072ZM47.4454 36.341C46.7085 36.341 45.9723 36.464 45.2403 36.7019L45.8585 38.604C46.4065 38.4259 46.9343 38.341 47.4454 38.341V36.341ZM45.262 36.6951C44.5225 36.917 43.8614 37.2412 43.2996 37.6826L44.5352 39.2553C44.8693 38.9928 45.2963 38.7729 45.8367 38.6108L45.262 36.6951ZM44.8132 38.0245L43.2772 34.9285L41.4856 35.8174L43.0216 38.9134L44.8132 38.0245ZM42.9276 36.2106C43.5539 35.8022 44.3268 35.4734 45.2639 35.2391L44.7788 33.2988C43.668 33.5765 42.6809 33.9838 41.8351 34.5353L42.9276 36.2106ZM45.2744 35.2364C46.2359 34.9849 47.1829 34.861 48.1174 34.861V32.861C47.0038 32.861 45.8868 33.009 44.7683 33.3015L45.2744 35.2364ZM48.1174 34.861C50.0862 34.861 51.456 35.3162 52.367 36.0879L53.6598 34.562C52.2667 33.3817 50.3725 32.861 48.1174 32.861V34.861ZM52.3784 36.0975C53.2388 36.8047 53.7654 37.9805 53.7654 39.861H55.7654C55.7654 37.6134 55.124 35.7652 53.6483 34.5524L52.3784 36.0975ZM53.7654 39.861V47.085H55.7654V39.861H53.7654ZM54.7654 46.085H50.5174V48.085H54.7654V46.085ZM46.6774 46.301C45.7459 46.301 45.0254 46.1429 44.4766 45.8746L43.5982 47.6713C44.4894 48.107 45.5288 48.301 46.6774 48.301V46.301ZM44.4766 45.8746C43.9035 45.5944 43.5008 45.2327 43.2269 44.799L41.5359 45.867C42.03 46.6492 42.7312 47.2475 43.5982 47.6713L44.4766 45.8746ZM43.2369 44.8152C42.969 44.3725 42.8294 43.8735 42.8294 43.293H40.8294C40.8294 44.2165 41.0578 45.0774 41.5259 45.8508L43.2369 44.8152ZM42.8294 43.293C42.8294 42.6671 42.9829 42.185 43.2507 41.7994L41.608 40.6586C41.0758 41.4249 40.8294 42.3188 40.8294 43.293H42.8294ZM43.2476 41.8039C43.5187 41.4181 43.961 41.0779 44.6628 40.8263L43.9879 38.9436C42.9937 39.3 42.1721 39.8558 41.6112 40.654L43.2476 41.8039ZM44.6784 40.8206C45.373 40.5585 46.3373 40.405 47.6134 40.405V38.405C46.2015 38.405 44.9737 38.5715 43.9723 38.9494L44.6784 40.8206ZM47.6134 40.405H50.6854V38.405H47.6134V40.405ZM49.6854 39.405V41.781H51.6854V39.405H49.6854ZM50.6854 40.781H48.2374V42.781H50.6854V40.781ZM48.2374 40.781C47.4511 40.781 46.6385 40.8975 46.0577 41.3561L47.297 42.9258C47.2961 42.9266 47.3094 42.9159 47.3462 42.8998C47.3833 42.8836 47.4396 42.864 47.5202 42.8454C47.6847 42.8074 47.9188 42.781 48.2374 42.781V40.781ZM46.0372 41.3727C45.5043 41.8168 45.2454 42.4269 45.2454 43.101H47.2454C47.2454 42.975 47.2744 42.9451 47.3176 42.9092L46.0372 41.3727ZM45.2454 43.101C45.2454 43.7953 45.5285 44.4091 46.0817 44.8458L47.321 43.2761C47.2782 43.2423 47.2667 43.2205 47.2627 43.2119C47.2581 43.2023 47.2454 43.1718 47.2454 43.101H45.2454ZM46.0817 44.8458C46.6167 45.2682 47.2775 45.421 47.9494 45.421V43.421C47.5653 43.421 47.394 43.3337 47.321 43.2761L46.0817 44.8458ZM47.9494 45.421C48.6147 45.421 49.2425 45.2577 49.8079 44.9185L48.7789 43.2035C48.5442 43.3443 48.2761 43.421 47.9494 43.421V45.421ZM49.8175 44.9126C50.4452 44.5263 50.8815 43.9539 51.1417 43.2601L49.269 42.5578C49.1452 42.888 48.9736 43.0836 48.7693 43.2093L49.8175 44.9126ZM49.2679 43.2571L49.8919 44.9371L51.7668 44.2408L51.1428 42.5608L49.2679 43.2571ZM49.8634 44.3302C49.6799 45.0153 49.3416 45.4786 48.8631 45.794L49.9637 47.4639C50.8932 46.8513 51.4988 45.9546 51.7953 44.8477L49.8634 44.3302ZM48.8677 45.791C48.3932 46.0999 47.6914 46.301 46.6774 46.301V48.301C47.9354 48.301 49.0575 48.054 49.959 47.467L48.8677 45.791ZM57.5533 51.621L57.8565 50.668L57.8496 50.6658L57.8427 50.6637L57.5533 51.621ZM55.8733 50.781L54.9775 50.3364L54.6226 51.0518L55.2416 51.5562L55.8733 50.781ZM57.4573 47.589L58.1189 46.8391L57.1412 45.9764L56.5615 47.1444L57.4573 47.589ZM58.3933 48.141L58.7577 47.2097L58.7464 47.2053L58.7351 47.2012L58.3933 48.141ZM60.6493 48.021L60.0354 47.2316L60.6493 48.021ZM61.3933 46.965L62.3109 47.3626L62.3171 47.3483L62.3228 47.3338L61.3933 46.965ZM61.9933 45.453L61.2084 44.8333L61.1178 44.9481L61.0638 45.0841L61.9933 45.453ZM62.3533 44.997L63.1382 45.6166L63.2268 45.5044L63.2804 45.3719L62.3533 44.997ZM66.7693 34.077V33.077H66.095L65.8422 33.7021L66.7693 34.077ZM71.1133 34.077L72.037 34.4602L72.6109 33.077H71.1133V34.077ZM65.4973 47.613L64.5736 47.2297L64.5688 47.2416L65.4973 47.613ZM63.9373 50.229L63.2118 49.5407L63.2028 49.5502L63.194 49.56L63.9373 50.229ZM61.9933 51.573L61.6583 50.6307L61.6516 50.6332L61.9933 51.573ZM61.4173 47.637L60.4963 48.0265L61.0628 49.3657L62.1106 48.3576L61.4173 47.637ZM55.6813 34.077V33.077H54.1725L54.7603 34.4665L55.6813 34.077ZM60.3613 34.077L61.2892 33.7041L61.0372 33.077H60.3613V34.077ZM64.5853 44.589L65.2786 45.3096L65.7647 44.8419L65.5132 44.2161L64.5853 44.589ZM59.6413 50.957C59.0635 50.957 58.4697 50.8631 57.8565 50.668L57.2501 52.5739C58.0449 52.8268 58.8431 52.957 59.6413 52.957V50.957ZM57.8427 50.6637C57.245 50.483 56.8112 50.2552 56.505 50.0057L55.2416 51.5562C55.7994 52.0107 56.4856 52.3429 57.2639 52.5782L57.8427 50.6637ZM56.7691 51.2255L58.3531 48.0335L56.5615 47.1444L54.9775 50.3364L56.7691 51.2255ZM56.7957 48.3388C57.1646 48.6643 57.5859 48.9114 58.0516 49.0808L58.7351 47.2012C58.4967 47.1145 58.2941 46.9937 58.1189 46.8391L56.7957 48.3388ZM58.0289 49.0722C58.4989 49.2561 58.9823 49.357 59.4733 49.357V47.357C59.2604 47.357 59.0238 47.3138 58.7577 47.2097L58.0289 49.0722ZM59.4733 49.357C60.1125 49.357 60.7461 49.2126 61.2633 48.8103L60.0354 47.2316C59.9766 47.2773 59.8261 47.357 59.4733 47.357V49.357ZM61.2633 48.8103C61.7288 48.4482 62.0633 47.9339 62.3109 47.3626L60.4758 46.5674C60.3073 46.956 60.1458 47.1457 60.0354 47.2316L61.2633 48.8103ZM62.3228 47.3338L62.9228 45.8218L61.0638 45.0841L60.4638 46.5961L62.3228 47.3338ZM62.7782 46.0726L63.1382 45.6166L61.5684 44.3773L61.2084 44.8333L62.7782 46.0726ZM63.2804 45.3719L67.6964 34.4519L65.8422 33.7021L61.4262 44.6221L63.2804 45.3719ZM66.7693 35.077H71.1133V33.077H66.7693V35.077ZM70.1897 33.6937L64.5737 47.2297L66.421 47.9962L72.037 34.4602L70.1897 33.6937ZM64.5688 47.2416C64.1503 48.2879 63.6893 49.0375 63.2118 49.5407L64.6628 50.9172C65.3694 50.1725 65.9483 49.1781 66.4258 47.9844L64.5688 47.2416ZM63.194 49.56C62.715 50.0923 62.2026 50.4372 61.6583 50.6307L62.3283 52.5152C63.224 52.1967 64.0077 51.6456 64.6806 50.8979L63.194 49.56ZM61.6516 50.6332C61.0725 50.8437 60.4064 50.957 59.6413 50.957V52.957C60.6043 52.957 61.5061 52.8142 62.3351 52.5128L61.6516 50.6332ZM62.3383 47.2474L56.6023 33.6874L54.7603 34.4665L60.4963 48.0265L62.3383 47.2474ZM55.6813 35.077H60.3613V33.077H55.6813V35.077ZM59.4334 34.4498L63.6574 44.9618L65.5132 44.2161L61.2892 33.7041L59.4334 34.4498ZM63.892 43.8683L60.724 46.9163L62.1106 48.3576L65.2786 45.3096L63.892 43.8683Z" fill="url(#paint1_angular_343_81)"/><defs><radialGradient id="paint0_angular_343_81" cx="0" cy="0" r="1" gradientUnits="userSpaceOnUse" gradientTransform="translate(93.6098 2.70235e-06) rotate(-98.6748) scale(29.8052 105.145)"><stop offset="0.00520833" stop-color="#FBE308"/><stop offset="0.317708" stop-color="#0AD3FF"/><stop offset="0.552083" stop-color="#31DC61" stop-opacity="0.92"/><stop offset="0.796875" stop-color="#0085FF"/></radialGradient><radialGradient id="paint1_angular_343_81" cx="0" cy="0" r="1" gradientUnits="userSpaceOnUse" gradientTransform="translate(45.2504 12.085) rotate(-97.5912) scale(21.503 66.6214)"><stop offset="0.00520833" stop-color="#FBE308"/><stop offset="0.317708" stop-color="#0AD3FF"/><stop offset="0.552083" stop-color="#31DC61" stop-opacity="0.92"/><stop offset="0.796875" stop-color="#0085FF"/></radialGradient></defs></svg>